<svg width="100mm" height="100mm" version="1.1" viewBox="0 0 100 100" xmlns="http://www.w3.org/2000/svg">
 <g transform="translate(0,-197)">
  <g transform="matrix(.40861 0 0 .40861 201.45 283.69)">
   <circle cx="-371.93" cy="-85.512" r="111.12" fill="#808080"/>
   <circle cx="-365.12" cy="-98.363" r="99.786" fill="#fff"/>
  </g>
  <g transform="matrix(.25609 0 0 .25609 47.564 212.17)">
   <circle cx="-64.445" cy="39.598" r="11.906" fill="#f95" stroke-width=".26458"/>
   <path d="m-98.652 34.307c-7.7374 44.941 0.45857 73.336 18.899 91.092-1.0259-33.652 25.45-49.192 43.467-70.304-36.432 11.422-51.905-1.7441-62.366-20.789z" fill="#f95"/>
   <path d="m-74.06 57.157c-0.78077-0.34061-1.4954-0.63119-1.9186-0.7567-0.99416-0.305-2.4232-0.5421-3.0879-0.51259-0.26096 0.01179-0.69101 0.07263-0.95574 0.13573-0.97015 0.25183-1.8312 0.85457-2.1972 1.6434-0.15268 0.33646-0.13361 0.94794 0.17586 1.5019 0.23203 0.36836 0.52728 0.66902 1.8493 1.8825 0.35613 0.32788 0.82532 0.7287 1.0636 1.1626 0.08032 0.20922 0.06551 0.43923 0.66738 1.6922l-0.72193 1.7429c-2.0862 2.5054-1.7969 2.1114-2.8642 3.3805-0.44986 0.58964-0.92547 1.2454-1.0573 1.4579-0.1317 0.21244-0.31359 0.4949-0.40343 0.62711-0.08986 0.13302-0.43 0.78731-0.75554 1.455-0.50092 1.0266-0.62083 1.3664-0.77808 2.2027-0.40025 2.174-6.8e-4 4.6367-0.3552 6.947 0.02907 0.10274 0.11684 0.14076 0.30774 0.13232 0.16719-0.01019 1.4259-1.5738 2.4544-3.0519 0.55274-0.79432 1.1566-1.4995 1.053-1.2297-0.04161 0.10846-0.17463 0.84949-0.29554 1.6469-0.12098 0.79742-0.22465 1.461-0.23059 1.4747 0.35517 0.24401 0.45694 0.23102 0.63525-0.11915 0.14556-0.33375 0.51823-0.89367 0.84078-1.2619 0.67399-0.77404 1.4918-1.462 2.2927-2.1927 1.1726-1.1429 1.5628-3.8131 1.8448-6.0849 0.0022-1.1234-0.1023-1.3344 0.66945-3.3796 0.13438-0.1005 0.38674-0.51779 0.62351-1.0312 0.39007-0.84512 0.40664-0.86621 0.88651-1.0864 0.26877-0.12332 0.53897-0.2427 0.60057-0.26562 0.26478-0.09694 0.8484-0.40378 0.87232-0.45897 0.06665-0.15382 0.69799-0.25482 1.2842-0.20507 1.2394 0.10701 2.423-0.01618 3.3443-0.49517 1.0865-0.80696 1.1758-2.3063-0.05332-3.5974-0.25744-0.25702-1.2784-0.97375-2.4102-1.6905-0.5993-0.37948-2.0804-1.0963-3.3813-1.6648zm-0.50195 0.37612c2.0084 0.86286 3.9753 2.0924 5.9249 3.4152-0.04201 0.03972-0.34858 0.09287-0.68248 0.12018-0.3339 0.02732-0.70857 0.07576-0.83278 0.10797-0.39023 0.10045-0.73844-0.03881-1.7392-0.6955-0.79781-0.52334-1.2272-0.74573-2.5318-1.3108-1.641-0.71085-1.6394-0.71014-3.8312-1.1157-0.47516-0.08762-0.89612-0.17407-0.93585-0.19129-0.16523-0.07257-0.32362-0.87924-0.2365-1.2038l0.0939-0.35035c1.6224 0.10182 3.2091 0.55256 4.7711 1.2241zm6.2788 3.9568c0.21804 0.09684 0.3413 0.33137 0.3318 0.79432 0.08166 1.0199-0.35681 1.5403-1.4565 1.7286-0.3683 0.06283-0.71497 0.09536-0.77002 0.0715-0.05498-0.02381-0.17782-0.02747-0.27342-0.0068-0.16869 0.03523-1.8754-0.03282-3.2429-0.12963-0.37347-0.02621-0.92207-0.03156-1.2194-0.01153-0.29727 0.02003-0.70458 0.08167-0.90522 0.13777-0.46837 0.13027-0.41416 0.01982 0.19247-0.39279 0.26732-0.1818 0.5853-0.42351 0.7069-0.53798 0.12146-0.11438 0.53789-0.34154 0.92561-0.50567 0.80888-0.34401 1.524-0.63769 2.6786-0.82825 0.64538-0.07587 1.1657-0.17456 1.8008-0.19974 0.51367-0.1404 0.95076-0.2437 1.2311-0.11898zm-11.764-5.0049 0.02038 0.44779c0.01114 0.24622 0.11999 0.63809 0.2414 0.87173 0.5885 1.0864 1.7482 1.5245 2.4332 2.6012 0.26591 0.42602 0.56596 1.2753 0.53458 1.5129-0.04373 0.40266 0.0125 0.93543-0.03782 1.4783-0.0243 0.23168-0.08503 0.21117-0.39275-0.12882-0.1297-0.14467-0.60092-0.57114-1.0473-0.9472-1.1905-1.0043-2.4505-2.0047-3.3073-3.3951-0.25023-0.45229-0.19603-0.9717 0.14812-1.4225 0.23937-0.30965 0.58072-0.57513 0.95421-0.8089zm4.6445 2.7088c1.1562 0.49728 2.289 1.1041 3.1704 1.5205 0.01648 0.04021 0.19689 0.16876 0.40259 0.28186 0.20547 0.11384 0.39072 0.21881 0.41348 0.22867 0.02167 0.01296-0.21098 0.03839-0.51637 0.05657-0.47761 0.02871-0.91355 0.14492-1.9386 0.51697-0.11421 0.04152-0.5159 0.15927-0.89302 0.2621-0.37704 0.10285-0.70289 0.17912-0.72412 0.16992-0.13385-0.05798-0.76584-0.93192-1.0381-1.4359-0.3199-0.59242-0.8948-1.2295-1.5753-1.7472-0.44812-0.34126-0.72067-0.66353-0.60934-0.72194 0.97302-0.01747 2.152 0.37172 3.3081 0.86924zm-0.2236 3.3466c0.15251 0.06491 0.24682 0.18955 0.1309 0.30718-0.02884 0.0619-0.21124 0.197-0.40463 0.29841l-0.35204 0.1856 0.07059-0.60017c0.06605-0.25743 0.35884-0.27361 0.55526-0.19099zm2.4683 1.8562c0.12195 0.05283 0.10765 0.07971-0.09603 0.18161-0.13184 0.06524-0.35692 0.17854-0.49983 0.25138-0.14297 0.07281-0.32082 0.15036-0.39544 0.1726-0.59132 0.17538-0.88347 0.28607-0.9085 0.34385-0.03376 0.07793-0.26351 0.05945-0.39407-0.03265-0.04828-0.0374-0.249-0.15742-0.4436-0.27479l-0.35461-0.21152 0.25638-0.12868c0.1408-0.07045 0.34962-0.14947 0.46379-0.17524 0.43595-0.09801 1.4154-0.18628 1.5283-0.13735 0.06473 0.02805 0.2501 0.02572 0.40931-4.16e-4 0.16042-0.02887 0.35622-0.02425 0.43516 0.01zm-5.2498-1.6797 0.44009 0.46344c0.24223 0.25456 0.47322 0.48027 0.51371 0.50112 0.15077 0.08191 0.28441 0.27779 0.36625 0.5505l0.0849 0.28147-0.42689-0.1897c-0.45223-0.20067-0.41994-0.15708-0.81731-1.1882zm1.3825 2.2722c0.5005 0.21788 1.0153 0.50595 1.1107 0.63986 0.04736 0.07007 0.14837 0.12218 0.22287 0.12138 0.07471-6.74e-4 0.15493 0.05875 0.17788 0.13497 0.05587 0.19202-0.10433 0.54505-0.24946 0.54914-0.06636 0.0044-0.19765 0.18718-0.29504 0.41201-0.18786 0.43364-0.19479 0.43478-0.68451 0.09947-0.1469-0.10496-0.63176-0.34806-1.0773-0.54107l-0.80706-0.35796 0.3043-0.70247 0.30423-0.70232 0.50901 0.17094c0.14812 0.04756 0.31386 0.11112 0.48085 0.18346zm-0.84396 1.8204 0.47816 0.26504c0.26253 0.1468 0.50756 0.31169 0.54315 0.36921 0.03574 0.05679-0.02984 0.3351-0.14518 0.61664-0.20041 0.48939-0.36994 1.2845-0.4304 2.0197-0.26238 3.2026-0.85815 6.4166-3.7502 8.996-0.19005 0.25744-0.21026 0.26687-0.13225 0.06009 0.05065-0.1343 0.08631-0.3462 0.07992-0.47131-0.0061-0.12503 0.03858-0.4173 0.10038-0.64927 0.06167-0.23205 0.08985-0.47363 0.06245-0.53674-0.02786-0.06163-3.08e-4 -0.23326 0.06022-0.37815 0.06091-0.14557 0.18439-0.80848 0.2746-1.474 0.09905-0.71681 0.36892-1.4694 0.43637-2.2951 0.27696-1.0628 0.31917-1.2513 0.5854-2.6203 0.70763-1.7805-4.3e-5 -1.8e-5 0.901-2.3437 0.22298-0.57963 0.6968-1.0721 0.78169-1.2442zm-0.6313-0.27108 8.35e-4 3.62e-4c-1.0967 2.2633-1.4331 2.3659-1.7654 4.0753-0.21748 1.1431-0.52245 2.4328-0.74104 3.726-0.09936 0.67039-0.23789 1.4329-0.30818 1.6952-0.15242 0.56886-0.68356 1.3658-1.4024 2.1043-0.46651 0.48075-0.99448 1.1032-1.4188 1.7025-0.27782 0.39384-0.52653 0.72235-0.55224 0.72923-0.02549 0.0055-0.0332-0.09701-0.01641-0.2303 0.03353-0.26902 0.04182-1.0906 0.03048-3.094-0.0077-1.3519 0.03805-1.7598 0.33891-3.0256 0.16436-0.69182 0.60187-1.6053 1.3222-2.7602 0.19235-0.30852 0.44476-0.72139 0.56043-0.91722 0.11561-0.19627 0.51756-0.74344 0.89323-1.217 1.3814-1.481 1.323-1.5237 2.6128-2.3915 0.21747-0.36461 0.31692-0.45297 0.44569-0.39719z" fill="#808080" stroke="#808080" stroke-width=".5"/>
  </g>
  <g transform="matrix(.25609 0 0 .25609 95.165 227.7)">
   <circle cx="-64.445" cy="39.598" r="11.906" fill="#0f0" stroke-width=".26458"/>
   <path d="m-98.652 34.307c-7.7374 44.941 0.45857 73.336 18.899 91.092-1.0259-33.652 25.45-49.192 43.467-70.304-36.432 11.422-51.905-1.7441-62.366-20.789z" fill="#0f0"/>
   <path d="m-74.06 57.157c-0.78077-0.34061-1.4954-0.63119-1.9186-0.7567-0.99416-0.305-2.4232-0.5421-3.0879-0.51259-0.26096 0.01179-0.69101 0.07263-0.95574 0.13573-0.97015 0.25183-1.8312 0.85457-2.1972 1.6434-0.15268 0.33646-0.13361 0.94794 0.17586 1.5019 0.23203 0.36836 0.52728 0.66902 1.8493 1.8825 0.35613 0.32788 0.82532 0.7287 1.0636 1.1626 0.08032 0.20922 0.06551 0.43923 0.66738 1.6922l-0.72193 1.7429c-2.0862 2.5054-1.7969 2.1114-2.8642 3.3805-0.44986 0.58964-0.92547 1.2454-1.0573 1.4579-0.1317 0.21244-0.31359 0.4949-0.40343 0.62711-0.08986 0.13302-0.43 0.78731-0.75554 1.455-0.50092 1.0266-0.62083 1.3664-0.77808 2.2027-0.40025 2.174-6.8e-4 4.6367-0.3552 6.947 0.02907 0.10274 0.11684 0.14076 0.30774 0.13232 0.16719-0.01019 1.4259-1.5738 2.4544-3.0519 0.55274-0.79432 1.1566-1.4995 1.053-1.2297-0.04161 0.10846-0.17463 0.84949-0.29554 1.6469-0.12098 0.79742-0.22465 1.461-0.23059 1.4747 0.35517 0.24401 0.45694 0.23102 0.63525-0.11915 0.14556-0.33375 0.51823-0.89367 0.84078-1.2619 0.67399-0.77404 1.4918-1.462 2.2927-2.1927 1.1726-1.1429 1.5628-3.8131 1.8448-6.0849 0.0022-1.1234-0.1023-1.3344 0.66945-3.3796 0.13438-0.1005 0.38674-0.51779 0.62351-1.0312 0.39007-0.84512 0.40664-0.86621 0.88651-1.0864 0.26877-0.12332 0.53897-0.2427 0.60057-0.26562 0.26478-0.09694 0.8484-0.40378 0.87232-0.45897 0.06665-0.15382 0.69799-0.25482 1.2842-0.20507 1.2394 0.10701 2.423-0.01618 3.3443-0.49517 1.0865-0.80696 1.1758-2.3063-0.05332-3.5974-0.25744-0.25702-1.2784-0.97375-2.4102-1.6905-0.5993-0.37948-2.0804-1.0963-3.3813-1.6648zm-0.50195 0.37612c2.0084 0.86286 3.9753 2.0924 5.9249 3.4152-0.04201 0.03972-0.34858 0.09287-0.68248 0.12018-0.3339 0.02732-0.70857 0.07576-0.83278 0.10797-0.39023 0.10045-0.73844-0.03881-1.7392-0.6955-0.79781-0.52334-1.2272-0.74573-2.5318-1.3108-1.641-0.71085-1.6394-0.71014-3.8312-1.1157-0.47516-0.08762-0.89612-0.17407-0.93585-0.19129-0.16523-0.07257-0.32362-0.87924-0.2365-1.2038l0.0939-0.35035c1.6224 0.10182 3.2091 0.55256 4.7711 1.2241zm6.2788 3.9568c0.21804 0.09684 0.3413 0.33137 0.3318 0.79432 0.08166 1.0199-0.35681 1.5403-1.4565 1.7286-0.3683 0.06283-0.71497 0.09536-0.77002 0.0715-0.05498-0.02381-0.17782-0.02747-0.27342-0.0068-0.16869 0.03523-1.8754-0.03282-3.2429-0.12963-0.37347-0.02621-0.92207-0.03156-1.2194-0.01153-0.29727 0.02003-0.70458 0.08167-0.90522 0.13777-0.46837 0.13027-0.41416 0.01982 0.19247-0.39279 0.26732-0.1818 0.5853-0.42351 0.7069-0.53798 0.12146-0.11438 0.53789-0.34154 0.92561-0.50567 0.80888-0.34401 1.524-0.63769 2.6786-0.82825 0.64538-0.07587 1.1657-0.17456 1.8008-0.19974 0.51367-0.1404 0.95076-0.2437 1.2311-0.11898zm-11.764-5.0049 0.02038 0.44779c0.01114 0.24622 0.11999 0.63809 0.2414 0.87173 0.5885 1.0864 1.7482 1.5245 2.4332 2.6012 0.26591 0.42602 0.56596 1.2753 0.53458 1.5129-0.04373 0.40266 0.0125 0.93543-0.03782 1.4783-0.0243 0.23168-0.08503 0.21117-0.39275-0.12882-0.1297-0.14467-0.60092-0.57114-1.0473-0.9472-1.1905-1.0043-2.4505-2.0047-3.3073-3.3951-0.25023-0.45229-0.19603-0.9717 0.14812-1.4225 0.23937-0.30965 0.58072-0.57513 0.95421-0.8089zm4.6445 2.7088c1.1562 0.49728 2.289 1.1041 3.1704 1.5205 0.01648 0.04021 0.19689 0.16876 0.40259 0.28186 0.20547 0.11384 0.39072 0.21881 0.41348 0.22867 0.02167 0.01296-0.21098 0.03839-0.51637 0.05657-0.47761 0.02871-0.91355 0.14492-1.9386 0.51697-0.11421 0.04152-0.5159 0.15927-0.89302 0.2621-0.37704 0.10285-0.70289 0.17912-0.72412 0.16992-0.13385-0.05798-0.76584-0.93192-1.0381-1.4359-0.3199-0.59242-0.8948-1.2295-1.5753-1.7472-0.44812-0.34126-0.72067-0.66353-0.60934-0.72194 0.97302-0.01747 2.152 0.37172 3.3081 0.86924zm-0.2236 3.3466c0.15251 0.06491 0.24682 0.18955 0.1309 0.30718-0.02884 0.0619-0.21124 0.197-0.40463 0.29841l-0.35204 0.1856 0.07059-0.60017c0.06605-0.25743 0.35884-0.27361 0.55526-0.19099zm2.4683 1.8562c0.12195 0.05283 0.10765 0.07971-0.09603 0.18161-0.13184 0.06524-0.35692 0.17854-0.49983 0.25138-0.14297 0.07281-0.32082 0.15036-0.39544 0.1726-0.59132 0.17538-0.88347 0.28607-0.9085 0.34385-0.03376 0.07793-0.26351 0.05945-0.39407-0.03265-0.04828-0.0374-0.249-0.15742-0.4436-0.27479l-0.35461-0.21152 0.25638-0.12868c0.1408-0.07045 0.34962-0.14947 0.46379-0.17524 0.43595-0.09801 1.4154-0.18628 1.5283-0.13735 0.06473 0.02805 0.2501 0.02572 0.40931-4.16e-4 0.16042-0.02887 0.35622-0.02425 0.43516 0.01zm-5.2498-1.6797 0.44009 0.46344c0.24223 0.25456 0.47322 0.48027 0.51371 0.50112 0.15077 0.08191 0.28441 0.27779 0.36625 0.5505l0.0849 0.28147-0.42689-0.1897c-0.45223-0.20067-0.41994-0.15708-0.81731-1.1882zm1.3825 2.2722c0.5005 0.21788 1.0153 0.50595 1.1107 0.63986 0.04736 0.07007 0.14837 0.12218 0.22287 0.12138 0.07471-6.74e-4 0.15493 0.05875 0.17788 0.13497 0.05587 0.19202-0.10433 0.54505-0.24946 0.54914-0.06636 0.0044-0.19765 0.18718-0.29504 0.41201-0.18786 0.43364-0.19479 0.43478-0.68451 0.09947-0.1469-0.10496-0.63176-0.34806-1.0773-0.54107l-0.80706-0.35796 0.3043-0.70247 0.30423-0.70232 0.50901 0.17094c0.14812 0.04756 0.31386 0.11112 0.48085 0.18346zm-0.84396 1.8204 0.47816 0.26504c0.26253 0.1468 0.50756 0.31169 0.54315 0.36921 0.03574 0.05679-0.02984 0.3351-0.14518 0.61664-0.20041 0.48939-0.36994 1.2845-0.4304 2.0197-0.26238 3.2026-0.85815 6.4166-3.7502 8.996-0.19005 0.25744-0.21026 0.26687-0.13225 0.06009 0.05065-0.1343 0.08631-0.3462 0.07992-0.47131-0.0061-0.12503 0.03858-0.4173 0.10038-0.64927 0.06167-0.23205 0.08985-0.47363 0.06245-0.53674-0.02786-0.06163-3.08e-4 -0.23326 0.06022-0.37815 0.06091-0.14557 0.18439-0.80848 0.2746-1.474 0.09905-0.71681 0.36892-1.4694 0.43637-2.2951 0.27696-1.0628 0.31917-1.2513 0.5854-2.6203 0.70763-1.7805-4.3e-5 -1.8e-5 0.901-2.3437 0.22298-0.57963 0.6968-1.0721 0.78169-1.2442zm-0.6313-0.27108 8.35e-4 3.62e-4c-1.0967 2.2633-1.4331 2.3659-1.7654 4.0753-0.21748 1.1431-0.52245 2.4328-0.74104 3.726-0.09936 0.67039-0.23789 1.4329-0.30818 1.6952-0.15242 0.56886-0.68356 1.3658-1.4024 2.1043-0.46651 0.48075-0.99448 1.1032-1.4188 1.7025-0.27782 0.39384-0.52653 0.72235-0.55224 0.72923-0.02549 0.0055-0.0332-0.09701-0.01641-0.2303 0.03353-0.26902 0.04182-1.0906 0.03048-3.094-0.0077-1.3519 0.03805-1.7598 0.33891-3.0256 0.16436-0.69182 0.60187-1.6053 1.3222-2.7602 0.19235-0.30852 0.44476-0.72139 0.56043-0.91722 0.11561-0.19627 0.51756-0.74344 0.89323-1.217 1.3814-1.481 1.323-1.5237 2.6128-2.3915 0.21747-0.36461 0.31692-0.45297 0.44569-0.39719z" fill="#808080" stroke="#808080" stroke-width=".5"/>
  </g>
  <g transform="matrix(.25609 0 0 .25609 76.728 247.88)">
   <circle cx="-64.445" cy="39.598" r="11.906" fill="#06f" stroke-width=".26458"/>
   <path d="m-98.652 34.307c-7.7374 44.941 0.45857 73.336 18.899 91.092-1.0259-33.652 25.45-49.192 43.467-70.304-36.432 11.422-51.905-1.7441-62.366-20.789z" fill="#06f"/>
   <path d="m-74.06 57.157c-0.78077-0.34061-1.4954-0.63119-1.9186-0.7567-0.99416-0.305-2.4232-0.5421-3.0879-0.51259-0.26096 0.01179-0.69101 0.07263-0.95574 0.13573-0.97015 0.25183-1.8312 0.85457-2.1972 1.6434-0.15268 0.33646-0.13361 0.94794 0.17586 1.5019 0.23203 0.36836 0.52728 0.66902 1.8493 1.8825 0.35613 0.32788 0.82532 0.7287 1.0636 1.1626 0.08032 0.20922 0.06551 0.43923 0.66738 1.6922l-0.72193 1.7429c-2.0862 2.5054-1.7969 2.1114-2.8642 3.3805-0.44986 0.58964-0.92547 1.2454-1.0573 1.4579-0.1317 0.21244-0.31359 0.4949-0.40343 0.62711-0.08986 0.13302-0.43 0.78731-0.75554 1.455-0.50092 1.0266-0.62083 1.3664-0.77808 2.2027-0.40025 2.174-6.8e-4 4.6367-0.3552 6.947 0.02907 0.10274 0.11684 0.14076 0.30774 0.13232 0.16719-0.01019 1.4259-1.5738 2.4544-3.0519 0.55274-0.79432 1.1566-1.4995 1.053-1.2297-0.04161 0.10846-0.17463 0.84949-0.29554 1.6469-0.12098 0.79742-0.22465 1.461-0.23059 1.4747 0.35517 0.24401 0.45694 0.23102 0.63525-0.11915 0.14556-0.33375 0.51823-0.89367 0.84078-1.2619 0.67399-0.77404 1.4918-1.462 2.2927-2.1927 1.1726-1.1429 1.5628-3.8131 1.8448-6.0849 0.0022-1.1234-0.1023-1.3344 0.66945-3.3796 0.13438-0.1005 0.38674-0.51779 0.62351-1.0312 0.39007-0.84512 0.40664-0.86621 0.88651-1.0864 0.26877-0.12332 0.53897-0.2427 0.60057-0.26562 0.26478-0.09694 0.8484-0.40378 0.87232-0.45897 0.06665-0.15382 0.69799-0.25482 1.2842-0.20507 1.2394 0.10701 2.423-0.01618 3.3443-0.49517 1.0865-0.80696 1.1758-2.3063-0.05332-3.5974-0.25744-0.25702-1.2784-0.97375-2.4102-1.6905-0.5993-0.37948-2.0804-1.0963-3.3813-1.6648zm-0.50195 0.37612c2.0084 0.86286 3.9753 2.0924 5.9249 3.4152-0.04201 0.03972-0.34858 0.09287-0.68248 0.12018-0.3339 0.02732-0.70857 0.07576-0.83278 0.10797-0.39023 0.10045-0.73844-0.03881-1.7392-0.6955-0.79781-0.52334-1.2272-0.74573-2.5318-1.3108-1.641-0.71085-1.6394-0.71014-3.8312-1.1157-0.47516-0.08762-0.89612-0.17407-0.93585-0.19129-0.16523-0.07257-0.32362-0.87924-0.2365-1.2038l0.0939-0.35035c1.6224 0.10182 3.2091 0.55256 4.7711 1.2241zm6.2788 3.9568c0.21804 0.09684 0.3413 0.33137 0.3318 0.79432 0.08166 1.0199-0.35681 1.5403-1.4565 1.7286-0.3683 0.06283-0.71497 0.09536-0.77002 0.0715-0.05498-0.02381-0.17782-0.02747-0.27342-0.0068-0.16869 0.03523-1.8754-0.03282-3.2429-0.12963-0.37347-0.02621-0.92207-0.03156-1.2194-0.01153-0.29727 0.02003-0.70458 0.08167-0.90522 0.13777-0.46837 0.13027-0.41416 0.01982 0.19247-0.39279 0.26732-0.1818 0.5853-0.42351 0.7069-0.53798 0.12146-0.11438 0.53789-0.34154 0.92561-0.50567 0.80888-0.34401 1.524-0.63769 2.6786-0.82825 0.64538-0.07587 1.1657-0.17456 1.8008-0.19974 0.51367-0.1404 0.95076-0.2437 1.2311-0.11898zm-11.764-5.0049 0.02038 0.44779c0.01114 0.24622 0.11999 0.63809 0.2414 0.87173 0.5885 1.0864 1.7482 1.5245 2.4332 2.6012 0.26591 0.42602 0.56596 1.2753 0.53458 1.5129-0.04373 0.40266 0.0125 0.93543-0.03782 1.4783-0.0243 0.23168-0.08503 0.21117-0.39275-0.12882-0.1297-0.14467-0.60092-0.57114-1.0473-0.9472-1.1905-1.0043-2.4505-2.0047-3.3073-3.3951-0.25023-0.45229-0.19603-0.9717 0.14812-1.4225 0.23937-0.30965 0.58072-0.57513 0.95421-0.8089zm4.6445 2.7088c1.1562 0.49728 2.289 1.1041 3.1704 1.5205 0.01648 0.04021 0.19689 0.16876 0.40259 0.28186 0.20547 0.11384 0.39072 0.21881 0.41348 0.22867 0.02167 0.01296-0.21098 0.03839-0.51637 0.05657-0.47761 0.02871-0.91355 0.14492-1.9386 0.51697-0.11421 0.04152-0.5159 0.15927-0.89302 0.2621-0.37704 0.10285-0.70289 0.17912-0.72412 0.16992-0.13385-0.05798-0.76584-0.93192-1.0381-1.4359-0.3199-0.59242-0.8948-1.2295-1.5753-1.7472-0.44812-0.34126-0.72067-0.66353-0.60934-0.72194 0.97302-0.01747 2.152 0.37172 3.3081 0.86924zm-0.2236 3.3466c0.15251 0.06491 0.24682 0.18955 0.1309 0.30718-0.02884 0.0619-0.21124 0.197-0.40463 0.29841l-0.35204 0.1856 0.07059-0.60017c0.06605-0.25743 0.35884-0.27361 0.55526-0.19099zm2.4683 1.8562c0.12195 0.05283 0.10765 0.07971-0.09603 0.18161-0.13184 0.06524-0.35692 0.17854-0.49983 0.25138-0.14297 0.07281-0.32082 0.15036-0.39544 0.1726-0.59132 0.17538-0.88347 0.28607-0.9085 0.34385-0.03376 0.07793-0.26351 0.05945-0.39407-0.03265-0.04828-0.0374-0.249-0.15742-0.4436-0.27479l-0.35461-0.21152 0.25638-0.12868c0.1408-0.07045 0.34962-0.14947 0.46379-0.17524 0.43595-0.09801 1.4154-0.18628 1.5283-0.13735 0.06473 0.02805 0.2501 0.02572 0.40931-4.16e-4 0.16042-0.02887 0.35622-0.02425 0.43516 0.01zm-5.2498-1.6797 0.44009 0.46344c0.24223 0.25456 0.47322 0.48027 0.51371 0.50112 0.15077 0.08191 0.28441 0.27779 0.36625 0.5505l0.0849 0.28147-0.42689-0.1897c-0.45223-0.20067-0.41994-0.15708-0.81731-1.1882zm1.3825 2.2722c0.5005 0.21788 1.0153 0.50595 1.1107 0.63986 0.04736 0.07007 0.14837 0.12218 0.22287 0.12138 0.07471-6.74e-4 0.15493 0.05875 0.17788 0.13497 0.05587 0.19202-0.10433 0.54505-0.24946 0.54914-0.06636 0.0044-0.19765 0.18718-0.29504 0.41201-0.18786 0.43364-0.19479 0.43478-0.68451 0.09947-0.1469-0.10496-0.63176-0.34806-1.0773-0.54107l-0.80706-0.35796 0.3043-0.70247 0.30423-0.70232 0.50901 0.17094c0.14812 0.04756 0.31386 0.11112 0.48085 0.18346zm-0.84396 1.8204 0.47816 0.26504c0.26253 0.1468 0.50756 0.31169 0.54315 0.36921 0.03574 0.05679-0.02984 0.3351-0.14518 0.61664-0.20041 0.48939-0.36994 1.2845-0.4304 2.0197-0.26238 3.2026-0.85815 6.4166-3.7502 8.996-0.19005 0.25744-0.21026 0.26687-0.13225 0.06009 0.05065-0.1343 0.08631-0.3462 0.07992-0.47131-0.0061-0.12503 0.03858-0.4173 0.10038-0.64927 0.06167-0.23205 0.08985-0.47363 0.06245-0.53674-0.02786-0.06163-3.08e-4 -0.23326 0.06022-0.37815 0.06091-0.14557 0.18439-0.80848 0.2746-1.474 0.09905-0.71681 0.36892-1.4694 0.43637-2.2951 0.27696-1.0628 0.31917-1.2513 0.5854-2.6203 0.70763-1.7805-4.3e-5 -1.8e-5 0.901-2.3437 0.22298-0.57963 0.6968-1.0721 0.78169-1.2442zm-0.6313-0.27108 8.35e-4 3.62e-4c-1.0967 2.2633-1.4331 2.3659-1.7654 4.0753-0.21748 1.1431-0.52245 2.4328-0.74104 3.726-0.09936 0.67039-0.23789 1.4329-0.30818 1.6952-0.15242 0.56886-0.68356 1.3658-1.4024 2.1043-0.46651 0.48075-0.99448 1.1032-1.4188 1.7025-0.27782 0.39384-0.52653 0.72235-0.55224 0.72923-0.02549 0.0055-0.0332-0.09701-0.01641-0.2303 0.03353-0.26902 0.04182-1.0906 0.03048-3.094-0.0077-1.3519 0.03805-1.7598 0.33891-3.0256 0.16436-0.69182 0.60187-1.6053 1.3222-2.7602 0.19235-0.30852 0.44476-0.72139 0.56043-0.91722 0.11561-0.19627 0.51756-0.74344 0.89323-1.217 1.3814-1.481 1.323-1.5237 2.6128-2.3915 0.21747-0.36461 0.31692-0.45297 0.44569-0.39719z" fill="#808080" stroke="#808080" stroke-width=".5"/>
  </g>
  <g transform="matrix(.25609 0 0 .25609 54.369 240.3)">
   <circle cx="-64.445" cy="39.598" r="11.906" fill="#ff2a2a" stroke-width=".26458"/>
   <path d="m-98.652 34.307c-7.7374 44.941 0.45857 73.336 18.899 91.092-1.0259-33.652 25.45-49.192 43.467-70.304-36.432 11.422-51.905-1.7441-62.366-20.789z" fill="#ff2a2a"/>
   <path d="m-74.06 57.157c-0.78077-0.34061-1.4954-0.63119-1.9186-0.7567-0.99416-0.305-2.4232-0.5421-3.0879-0.51259-0.26096 0.01179-0.69101 0.07263-0.95574 0.13573-0.97015 0.25183-1.8312 0.85457-2.1972 1.6434-0.15268 0.33646-0.13361 0.94794 0.17586 1.5019 0.23203 0.36836 0.52728 0.66902 1.8493 1.8825 0.35613 0.32788 0.82532 0.7287 1.0636 1.1626 0.08032 0.20922 0.06551 0.43923 0.66738 1.6922l-0.72193 1.7429c-2.0862 2.5054-1.7969 2.1114-2.8642 3.3805-0.44986 0.58964-0.92547 1.2454-1.0573 1.4579-0.1317 0.21244-0.31359 0.4949-0.40343 0.62711-0.08986 0.13302-0.43 0.78731-0.75554 1.455-0.50092 1.0266-0.62083 1.3664-0.77808 2.2027-0.40025 2.174-6.8e-4 4.6367-0.3552 6.947 0.02907 0.10274 0.11684 0.14076 0.30774 0.13232 0.16719-0.01019 1.4259-1.5738 2.4544-3.0519 0.55274-0.79432 1.1566-1.4995 1.053-1.2297-0.04161 0.10846-0.17463 0.84949-0.29554 1.6469-0.12098 0.79742-0.22465 1.461-0.23059 1.4747 0.35517 0.24401 0.45694 0.23102 0.63525-0.11915 0.14556-0.33375 0.51823-0.89367 0.84078-1.2619 0.67399-0.77404 1.4918-1.462 2.2927-2.1927 1.1726-1.1429 1.5628-3.8131 1.8448-6.0849 0.0022-1.1234-0.1023-1.3344 0.66945-3.3796 0.13438-0.1005 0.38674-0.51779 0.62351-1.0312 0.39007-0.84512 0.40664-0.86621 0.88651-1.0864 0.26877-0.12332 0.53897-0.2427 0.60057-0.26562 0.26478-0.09694 0.8484-0.40378 0.87232-0.45897 0.06665-0.15382 0.69799-0.25482 1.2842-0.20507 1.2394 0.10701 2.423-0.01618 3.3443-0.49517 1.0865-0.80696 1.1758-2.3063-0.05332-3.5974-0.25744-0.25702-1.2784-0.97375-2.4102-1.6905-0.5993-0.37948-2.0804-1.0963-3.3813-1.6648zm-0.50195 0.37612c2.0084 0.86286 3.9753 2.0924 5.9249 3.4152-0.04201 0.03972-0.34858 0.09287-0.68248 0.12018-0.3339 0.02732-0.70857 0.07576-0.83278 0.10797-0.39023 0.10045-0.73844-0.03881-1.7392-0.6955-0.79781-0.52334-1.2272-0.74573-2.5318-1.3108-1.641-0.71085-1.6394-0.71014-3.8312-1.1157-0.47516-0.08762-0.89612-0.17407-0.93585-0.19129-0.16523-0.07257-0.32362-0.87924-0.2365-1.2038l0.0939-0.35035c1.6224 0.10182 3.2091 0.55256 4.7711 1.2241zm6.2788 3.9568c0.21804 0.09684 0.3413 0.33137 0.3318 0.79432 0.08166 1.0199-0.35681 1.5403-1.4565 1.7286-0.3683 0.06283-0.71497 0.09536-0.77002 0.0715-0.05498-0.02381-0.17782-0.02747-0.27342-0.0068-0.16869 0.03523-1.8754-0.03282-3.2429-0.12963-0.37347-0.02621-0.92207-0.03156-1.2194-0.01153-0.29727 0.02003-0.70458 0.08167-0.90522 0.13777-0.46837 0.13027-0.41416 0.01982 0.19247-0.39279 0.26732-0.1818 0.5853-0.42351 0.7069-0.53798 0.12146-0.11438 0.53789-0.34154 0.92561-0.50567 0.80888-0.34401 1.524-0.63769 2.6786-0.82825 0.64538-0.07587 1.1657-0.17456 1.8008-0.19974 0.51367-0.1404 0.95076-0.2437 1.2311-0.11898zm-11.764-5.0049 0.02038 0.44779c0.01114 0.24622 0.11999 0.63809 0.2414 0.87173 0.5885 1.0864 1.7482 1.5245 2.4332 2.6012 0.26591 0.42602 0.56596 1.2753 0.53458 1.5129-0.04373 0.40266 0.0125 0.93543-0.03782 1.4783-0.0243 0.23168-0.08503 0.21117-0.39275-0.12882-0.1297-0.14467-0.60092-0.57114-1.0473-0.9472-1.1905-1.0043-2.4505-2.0047-3.3073-3.3951-0.25023-0.45229-0.19603-0.9717 0.14812-1.4225 0.23937-0.30965 0.58072-0.57513 0.95421-0.8089zm4.6445 2.7088c1.1562 0.49728 2.289 1.1041 3.1704 1.5205 0.01648 0.04021 0.19689 0.16876 0.40259 0.28186 0.20547 0.11384 0.39072 0.21881 0.41348 0.22867 0.02167 0.01296-0.21098 0.03839-0.51637 0.05657-0.47761 0.02871-0.91355 0.14492-1.9386 0.51697-0.11421 0.04152-0.5159 0.15927-0.89302 0.2621-0.37704 0.10285-0.70289 0.17912-0.72412 0.16992-0.13385-0.05798-0.76584-0.93192-1.0381-1.4359-0.3199-0.59242-0.8948-1.2295-1.5753-1.7472-0.44812-0.34126-0.72067-0.66353-0.60934-0.72194 0.97302-0.01747 2.152 0.37172 3.3081 0.86924zm-0.2236 3.3466c0.15251 0.06491 0.24682 0.18955 0.1309 0.30718-0.02884 0.0619-0.21124 0.197-0.40463 0.29841l-0.35204 0.1856 0.07059-0.60017c0.06605-0.25743 0.35884-0.27361 0.55526-0.19099zm2.4683 1.8562c0.12195 0.05283 0.10765 0.07971-0.09603 0.18161-0.13184 0.06524-0.35692 0.17854-0.49983 0.25138-0.14297 0.07281-0.32082 0.15036-0.39544 0.1726-0.59132 0.17538-0.88347 0.28607-0.9085 0.34385-0.03376 0.07793-0.26351 0.05945-0.39407-0.03265-0.04828-0.0374-0.249-0.15742-0.4436-0.27479l-0.35461-0.21152 0.25638-0.12868c0.1408-0.07045 0.34962-0.14947 0.46379-0.17524 0.43595-0.09801 1.4154-0.18628 1.5283-0.13735 0.06473 0.02805 0.2501 0.02572 0.40931-4.16e-4 0.16042-0.02887 0.35622-0.02425 0.43516 0.01zm-5.2498-1.6797 0.44009 0.46344c0.24223 0.25456 0.47322 0.48027 0.51371 0.50112 0.15077 0.08191 0.28441 0.27779 0.36625 0.5505l0.0849 0.28147-0.42689-0.1897c-0.45223-0.20067-0.41994-0.15708-0.81731-1.1882zm1.3825 2.2722c0.5005 0.21788 1.0153 0.50595 1.1107 0.63986 0.04736 0.07007 0.14837 0.12218 0.22287 0.12138 0.07471-6.74e-4 0.15493 0.05875 0.17788 0.13497 0.05587 0.19202-0.10433 0.54505-0.24946 0.54914-0.06636 0.0044-0.19765 0.18718-0.29504 0.41201-0.18786 0.43364-0.19479 0.43478-0.68451 0.09947-0.1469-0.10496-0.63176-0.34806-1.0773-0.54107l-0.80706-0.35796 0.3043-0.70247 0.30423-0.70232 0.50901 0.17094c0.14812 0.04756 0.31386 0.11112 0.48085 0.18346zm-0.84396 1.8204 0.47816 0.26504c0.26253 0.1468 0.50756 0.31169 0.54315 0.36921 0.03574 0.05679-0.02984 0.3351-0.14518 0.61664-0.20041 0.48939-0.36994 1.2845-0.4304 2.0197-0.26238 3.2026-0.85815 6.4166-3.7502 8.996-0.19005 0.25744-0.21026 0.26687-0.13225 0.06009 0.05065-0.1343 0.08631-0.3462 0.07992-0.47131-0.0061-0.12503 0.03858-0.4173 0.10038-0.64927 0.06167-0.23205 0.08985-0.47363 0.06245-0.53674-0.02786-0.06163-3.08e-4 -0.23326 0.06022-0.37815 0.06091-0.14557 0.18439-0.80848 0.2746-1.474 0.09905-0.71681 0.36892-1.4694 0.43637-2.2951 0.27696-1.0628 0.31917-1.2513 0.5854-2.6203 0.70763-1.7805-4.3e-5 -1.8e-5 0.901-2.3437 0.22298-0.57963 0.6968-1.0721 0.78169-1.2442zm-0.6313-0.27108 8.35e-4 3.62e-4c-1.0967 2.2633-1.4331 2.3659-1.7654 4.0753-0.21748 1.1431-0.52245 2.4328-0.74104 3.726-0.09936 0.67039-0.23789 1.4329-0.30818 1.6952-0.15242 0.56886-0.68356 1.3658-1.4024 2.1043-0.46651 0.48075-0.99448 1.1032-1.4188 1.7025-0.27782 0.39384-0.52653 0.72235-0.55224 0.72923-0.02549 0.0055-0.0332-0.09701-0.01641-0.2303 0.03353-0.26902 0.04182-1.0906 0.03048-3.094-0.0077-1.3519 0.03805-1.7598 0.33891-3.0256 0.16436-0.69182 0.60187-1.6053 1.3222-2.7602 0.19235-0.30852 0.44476-0.72139 0.56043-0.91722 0.11561-0.19627 0.51756-0.74344 0.89323-1.217 1.3814-1.481 1.323-1.5237 2.6128-2.3915 0.21747-0.36461 0.31692-0.45297 0.44569-0.39719z" fill="#808080" stroke="#808080" stroke-width=".5"/>
  </g>
  <g transform="matrix(.25609 0 0 .25609 69.332 206.7)">
   <circle cx="-64.445" cy="39.598" r="11.906" fill="#ff0" stroke-width=".26458"/>
   <path d="m-98.652 34.307c-7.7374 44.941 0.45857 73.336 18.899 91.092-1.0259-33.652 25.45-49.192 43.467-70.304-36.432 11.422-51.905-1.7441-62.366-20.789z" fill="#ff0"/>
   <path d="m-74.06 57.157c-0.78077-0.34061-1.4954-0.63119-1.9186-0.7567-0.99416-0.305-2.4232-0.5421-3.0879-0.51259-0.26096 0.01179-0.69101 0.07263-0.95574 0.13573-0.97015 0.25183-1.8312 0.85457-2.1972 1.6434-0.15268 0.33646-0.13361 0.94794 0.17586 1.5019 0.23203 0.36836 0.52728 0.66902 1.8493 1.8825 0.35613 0.32788 0.82532 0.7287 1.0636 1.1626 0.08032 0.20922 0.06551 0.43923 0.66738 1.6922l-0.72193 1.7429c-2.0862 2.5054-1.7969 2.1114-2.8642 3.3805-0.44986 0.58964-0.92547 1.2454-1.0573 1.4579-0.1317 0.21244-0.31359 0.4949-0.40343 0.62711-0.08986 0.13302-0.43 0.78731-0.75554 1.455-0.50092 1.0266-0.62083 1.3664-0.77808 2.2027-0.40025 2.174-6.8e-4 4.6367-0.3552 6.947 0.02907 0.10274 0.11684 0.14076 0.30774 0.13232 0.16719-0.01019 1.4259-1.5738 2.4544-3.0519 0.55274-0.79432 1.1566-1.4995 1.053-1.2297-0.04161 0.10846-0.17463 0.84949-0.29554 1.6469-0.12098 0.79742-0.22465 1.461-0.23059 1.4747 0.35517 0.24401 0.45694 0.23102 0.63525-0.11915 0.14556-0.33375 0.51823-0.89367 0.84078-1.2619 0.67399-0.77404 1.4918-1.462 2.2927-2.1927 1.1726-1.1429 1.5628-3.8131 1.8448-6.0849 0.0022-1.1234-0.1023-1.3344 0.66945-3.3796 0.13438-0.1005 0.38674-0.51779 0.62351-1.0312 0.39007-0.84512 0.40664-0.86621 0.88651-1.0864 0.26877-0.12332 0.53897-0.2427 0.60057-0.26562 0.26478-0.09694 0.8484-0.40378 0.87232-0.45897 0.06665-0.15382 0.69799-0.25482 1.2842-0.20507 1.2394 0.10701 2.423-0.01618 3.3443-0.49517 1.0865-0.80696 1.1758-2.3063-0.05332-3.5974-0.25744-0.25702-1.2784-0.97375-2.4102-1.6905-0.5993-0.37948-2.0804-1.0963-3.3813-1.6648zm-0.50195 0.37612c2.0084 0.86286 3.9753 2.0924 5.9249 3.4152-0.04201 0.03972-0.34858 0.09287-0.68248 0.12018-0.3339 0.02732-0.70857 0.07576-0.83278 0.10797-0.39023 0.10045-0.73844-0.03881-1.7392-0.6955-0.79781-0.52334-1.2272-0.74573-2.5318-1.3108-1.641-0.71085-1.6394-0.71014-3.8312-1.1157-0.47516-0.08762-0.89612-0.17407-0.93585-0.19129-0.16523-0.07257-0.32362-0.87924-0.2365-1.2038l0.0939-0.35035c1.6224 0.10182 3.2091 0.55256 4.7711 1.2241zm6.2788 3.9568c0.21804 0.09684 0.3413 0.33137 0.3318 0.79432 0.08166 1.0199-0.35681 1.5403-1.4565 1.7286-0.3683 0.06283-0.71497 0.09536-0.77002 0.0715-0.05498-0.02381-0.17782-0.02747-0.27342-0.0068-0.16869 0.03523-1.8754-0.03282-3.2429-0.12963-0.37347-0.02621-0.92207-0.03156-1.2194-0.01153-0.29727 0.02003-0.70458 0.08167-0.90522 0.13777-0.46837 0.13027-0.41416 0.01982 0.19247-0.39279 0.26732-0.1818 0.5853-0.42351 0.7069-0.53798 0.12146-0.11438 0.53789-0.34154 0.92561-0.50567 0.80888-0.34401 1.524-0.63769 2.6786-0.82825 0.64538-0.07587 1.1657-0.17456 1.8008-0.19974 0.51367-0.1404 0.95076-0.2437 1.2311-0.11898zm-11.764-5.0049 0.02038 0.44779c0.01114 0.24622 0.11999 0.63809 0.2414 0.87173 0.5885 1.0864 1.7482 1.5245 2.4332 2.6012 0.26591 0.42602 0.56596 1.2753 0.53458 1.5129-0.04373 0.40266 0.0125 0.93543-0.03782 1.4783-0.0243 0.23168-0.08503 0.21117-0.39275-0.12882-0.1297-0.14467-0.60092-0.57114-1.0473-0.9472-1.1905-1.0043-2.4505-2.0047-3.3073-3.3951-0.25023-0.45229-0.19603-0.9717 0.14812-1.4225 0.23937-0.30965 0.58072-0.57513 0.95421-0.8089zm4.6445 2.7088c1.1562 0.49728 2.289 1.1041 3.1704 1.5205 0.01648 0.04021 0.19689 0.16876 0.40259 0.28186 0.20547 0.11384 0.39072 0.21881 0.41348 0.22867 0.02167 0.01296-0.21098 0.03839-0.51637 0.05657-0.47761 0.02871-0.91355 0.14492-1.9386 0.51697-0.11421 0.04152-0.5159 0.15927-0.89302 0.2621-0.37704 0.10285-0.70289 0.17912-0.72412 0.16992-0.13385-0.05798-0.76584-0.93192-1.0381-1.4359-0.3199-0.59242-0.8948-1.2295-1.5753-1.7472-0.44812-0.34126-0.72067-0.66353-0.60934-0.72194 0.97302-0.01747 2.152 0.37172 3.3081 0.86924zm-0.2236 3.3466c0.15251 0.06491 0.24682 0.18955 0.1309 0.30718-0.02884 0.0619-0.21124 0.197-0.40463 0.29841l-0.35204 0.1856 0.07059-0.60017c0.06605-0.25743 0.35884-0.27361 0.55526-0.19099zm2.4683 1.8562c0.12195 0.05283 0.10765 0.07971-0.09603 0.18161-0.13184 0.06524-0.35692 0.17854-0.49983 0.25138-0.14297 0.07281-0.32082 0.15036-0.39544 0.1726-0.59132 0.17538-0.88347 0.28607-0.9085 0.34385-0.03376 0.07793-0.26351 0.05945-0.39407-0.03265-0.04828-0.0374-0.249-0.15742-0.4436-0.27479l-0.35461-0.21152 0.25638-0.12868c0.1408-0.07045 0.34962-0.14947 0.46379-0.17524 0.43595-0.09801 1.4154-0.18628 1.5283-0.13735 0.06473 0.02805 0.2501 0.02572 0.40931-4.16e-4 0.16042-0.02887 0.35622-0.02425 0.43516 0.01zm-5.2498-1.6797 0.44009 0.46344c0.24223 0.25456 0.47322 0.48027 0.51371 0.50112 0.15077 0.08191 0.28441 0.27779 0.36625 0.5505l0.0849 0.28147-0.42689-0.1897c-0.45223-0.20067-0.41994-0.15708-0.81731-1.1882zm1.3825 2.2722c0.5005 0.21788 1.0153 0.50595 1.1107 0.63986 0.04736 0.07007 0.14837 0.12218 0.22287 0.12138 0.07471-6.74e-4 0.15493 0.05875 0.17788 0.13497 0.05587 0.19202-0.10433 0.54505-0.24946 0.54914-0.06636 0.0044-0.19765 0.18718-0.29504 0.41201-0.18786 0.43364-0.19479 0.43478-0.68451 0.09947-0.1469-0.10496-0.63176-0.34806-1.0773-0.54107l-0.80706-0.35796 0.3043-0.70247 0.30423-0.70232 0.50901 0.17094c0.14812 0.04756 0.31386 0.11112 0.48085 0.18346zm-0.84396 1.8204 0.47816 0.26504c0.26253 0.1468 0.50756 0.31169 0.54315 0.36921 0.03574 0.05679-0.02984 0.3351-0.14518 0.61664-0.20041 0.48939-0.36994 1.2845-0.4304 2.0197-0.26238 3.2026-0.85815 6.4166-3.7502 8.996-0.19005 0.25744-0.21026 0.26687-0.13225 0.06009 0.05065-0.1343 0.08631-0.3462 0.07992-0.47131-0.0061-0.12503 0.03858-0.4173 0.10038-0.64927 0.06167-0.23205 0.08985-0.47363 0.06245-0.53674-0.02786-0.06163-3.08e-4 -0.23326 0.06022-0.37815 0.06091-0.14557 0.18439-0.80848 0.2746-1.474 0.09905-0.71681 0.36892-1.4694 0.43637-2.2951 0.27696-1.0628 0.31917-1.2513 0.5854-2.6203 0.70763-1.7805-4.3e-5 -1.8e-5 0.901-2.3437 0.22298-0.57963 0.6968-1.0721 0.78169-1.2442zm-0.6313-0.27108 8.35e-4 3.62e-4c-1.0967 2.2633-1.4331 2.3659-1.7654 4.0753-0.21748 1.1431-0.52245 2.4328-0.74104 3.726-0.09936 0.67039-0.23789 1.4329-0.30818 1.6952-0.15242 0.56886-0.68356 1.3658-1.4024 2.1043-0.46651 0.48075-0.99448 1.1032-1.4188 1.7025-0.27782 0.39384-0.52653 0.72235-0.55224 0.72923-0.02549 0.0055-0.0332-0.09701-0.01641-0.2303 0.03353-0.26902 0.04182-1.0906 0.03048-3.094-0.0077-1.3519 0.03805-1.7598 0.33891-3.0256 0.16436-0.69182 0.60187-1.6053 1.3222-2.7602 0.19235-0.30852 0.44476-0.72139 0.56043-0.91722 0.11561-0.19627 0.51756-0.74344 0.89323-1.217 1.3814-1.481 1.323-1.5237 2.6128-2.3915 0.21747-0.36461 0.31692-0.45297 0.44569-0.39719z" fill="#808080" stroke="#808080" stroke-width=".5"/>
  </g>
  <g transform="matrix(.3569 0 0 .3569 -29.773 114.01)" fill-rule="evenodd">
   <g transform="matrix(.64334 0 0 .64334 500.21 354.44)">
    <g transform="matrix(.9763 0 0 .9763 -439.8 -151.44)">
     <path transform="matrix(.98743 0 0 .98743 -247.59 -313.4)" d="m340.73 329.06c-1.822 0-3.2988 1.4776-3.2988 3.2988v13.637c0 1.822 1.4768 3.2988 3.2988 3.2988h12.807l-18.365 27.465c-0.44722 0.56243-0.71289 1.2747-0.71289 2.0488 0 1.822 1.4769 3.2988 3.2988 3.2988h47.062c1.8212 0 3.3346-1.4772 3.2988-3.2988l-0.25586-13.086c-0.17942-2.3919-0.38584-2.2452-0.90821-3.0664-0.57612-0.48899-1.321-0.78515-2.1348-0.78515l-10.027-3.125 14.908-24.387c0.42272-0.55523 0.67383-1.2482 0.67383-2 0-1.8212-1.4769-3.2988-3.2988-3.2988zm1.3466 2.6056 42.659 0.074-20.782 33.272 17.822 0.6836 0.19531 11-42.468-0.0927 20.438-30.974-17.761-0.35012z" fill="#0094de" fill-rule="evenodd"/>
    </g>
    <g transform="translate(-492.17 -271.24)" fill-rule="evenodd">
     <path d="m186.91 116.18c0.36902-0.0697 0.7483-0.11788 1.1224-0.15017 1.5735-0.13685 3.5365 0.0205 4.0695 1.8887 0.0615 0.19938 0.0923 0.3921 0.10251 0.57969 1.0404-1.1045 2.4704-1.7436 4.0234-1.9502 2.455-0.32495 5.0587 0.40643 7.2831 1.389 20.383 8.9878 28.005 33.825 18.328 53.4-9.7689 19.764-33.75 27.666-53.462 17.921-0.44077-0.21731-0.8713-0.46332-1.2916-0.72317-0.52278-0.32649-1.0507-0.69347-1.512-1.1045-0.93281-0.83542-1.5478-2.0004-1.0609-3.2812 1.0046-2.619 4.4232-1.5243 6.3452-0.95947 11.845 3.476 25.201 0.55764 32.807-9.5977 2.3576-3.1449 3.9619-6.7301 4.7563-10.576 1.2301-5.9377 0.46129-12.14-1.799-17.739-2.4909-6.1704-6.7142-11.506-11.993-15.529-1.5888-1.2091-2.9266-2.8174-3.5877-4.7184-0.46128-1.3321-0.56378-2.7825-0.18963-4.1274-0.082 0.0579-0.16914 0.11276-0.2614 0.16504-0.65092 0.38388-1.4197 0.68679-2.127 0.95279-8.0724 3.0322-14.305 10.223-14.289 19.093 5e-3 2.7313 0.60992 5.3918 1.7785 7.8612 3.8799 8.2297 12.88 12.736 21.731 12.79 3.0342 0.0189 6.4015 1.6319 6.8936 4.928 0.25114 1.698-0.44079 3.3161-1.6401 4.4985-1.3633 1.3387-3.2751 2.0973-5.11 2.5253-6.176 1.4438-12.562 0.68114-18.262-2.0829-8.4209-4.0828-14.464-12.044-16.191-21.236-2.9983-15.954 7.6214-31.228 23.536-34.218z" fill="#0094de"/>
     <path d="m187.23 117.93c1.477-0.27796 4.6003-0.33283 0.28207 1.2898-9.3186 3.5008-15.857 11.738-15.842 21.332 0.0257 12.747 11.611 22.946 25.884 23.033 5.2619 0.0318 7.0671 5.5347-0.37951 7.2743-14.57 3.4043-28.853-6.844-31.602-21.46-2.7489-14.616 6.9492-28.705 21.658-31.469z" fill="#ff7f2a" stroke="#fff" stroke-width=".56693"/>
     <path d="m169.29 186.6c-1.8719-0.9257-5.3901-3.4736 0.76415-1.6673 13.268 3.8946 27.402 0.20719 35.392-10.459 10.621-14.172 6.2671-35.17-9.5032-47.182-5.8158-4.43-3.2258-12.045 6.4979-7.7595 19.017 8.3867 26.32 31.691 17.165 50.211-9.1544 18.52-31.679 26.067-50.316 16.856z" fill="#e21c2a" stroke="#fff" stroke-width=".56693"/>
     <g stroke="#fff" stroke-width=".56693">
      <path d="m187.23 117.93c1.477-0.27744 4.6003-0.33283 0.28207 1.2898-9.3186 3.5008-15.857 11.738-15.842 21.332 5e-3 0.93492 0.0667 1.856 0.18975 2.7607-1.7591 4.5188-2.3232 9.5622-1.3642 14.671 0.26156 1.3878 0.62569 2.7361 1.0872 4.0377-2.9746-3.5223-5.1132-7.8385-6.0106-12.622-2.7489-14.616 6.9492-28.705 21.658-31.469z" fill="#ffec00"/>
      <path d="m210.45 163.76c3.0053-12.679-2.3694-27.239-14.504-36.48-5.8158-4.43-3.2259-12.046 6.4979-7.7595 9.8878 4.3608 16.606 12.754 19.494 22.411-0.3077 5.7352-2.1848 11.301-5.7696 16.088-1.6616 2.2171-3.59 4.1316-5.7183 5.7404z" fill="#009240"/>
      <path d="m201.49 178.76c1.0472-1.0243 3.3048-3.5352 4.2057-4.7379 5.4708-8.6009 5.4397-12.458 5.1722-22.347 5.9062-3.9374 8.3442-6.3 10.968-10.074 2.7118 8.6784 2.1844 19.265-1.9802 27.69-2.3731 4.8008-5.4667 8.9289-9.336 12.154-3.7887-0.43823-6.7827-1.2114-9.0297-2.6859z" fill="#0cf"/>
     </g>
    </g>
   </g>
   <g transform="matrix(.12063 0 0 .12063 508.11 306.96)" fill="#0094de" fill-rule="evenodd">
    <g shape-rendering="auto">
     <path transform="matrix(6.6317 0 0 6.6317 -4212 -2544.5)" d="m328.12 343.03c-4.4842 22.681 8.4503 45.209 30.299 52.771 1.2897 0.44642 2.5855 0.82117 3.8848 1.1484v-1.6211c-1.1274-0.2947-2.2532-0.62018-3.373-1.0078-21.12-7.3106-33.608-29.061-29.273-50.986zm90.91 0-1.5391 0.30273c1.5384 7.7809 0.98113 15.831-1.6133 23.326-5.0863 14.694-17.048 25.039-31.037 28.688v1.6035c14.647-3.6892 27.212-14.445 32.52-29.777 2.6853-7.7577 3.2622-16.089 1.6699-24.143z" color="#000000" color-rendering="auto" image-rendering="auto" solid-color="#000000" style="isolation:auto;mix-blend-mode:normal;text-decoration-color:#000000;text-decoration-line:none;text-decoration-style:solid;text-indent:0;text-transform:none;white-space:normal"/>
     <path d="m-1418.5-264.26 0.9941 5.2246 0.6133 3.5391 11.088-1.918-0.6133-3.5391-0.02-0.0938-1.0117-5.3144zm-644.66 5.3965-0.012 0.0625-0.01 0.0645-0.1661 1.0195 11.108 1.8105 0.1621-0.99218v-0.0274l1.375-7.3496-11.062-2.0664zm-3.8847 30.365-0.01 0.0644v0.0644l-0.3242 4.6777 11.227 0.77929 0.3144-4.5488v-0.0352l0.5996-6.502-11.205-1.0371zm653.1-5.0684 0.084 0.78125v4e-3l0.4727 5.3574 0.3496 4.8848 11.225-0.80273-0.3555-4.9785v-0.0938l-0.4746-5.3613v-0.0938l-0.092-0.875zm-654.16 35.217v0.1289l0.1641 7.3555v0.1289l0.064 1.4297 11.242-0.50781-0.062-1.3867v-0.0449l-0.1601-7.0996v-2.4629l-11.252-4e-3zm655.67 2.4844v0.0938l-0.1464 5.1797-0.051 1.1426 11.242 0.50195 0.051-1.1445v-0.0918l0.1504-5.3652v-0.0938l0.055-4.7402-11.254-0.1289zm-653.75 29.381 0.5996 5.2754 0.02 0.125 0.8047 5.8906 11.15-1.5234-0.7969-5.8301-0.5937-5.209zm651.56 2.1738-0.6817 5.3262-0.375 2.5801 11.137 1.6152 0.3886-2.6738 0.01-0.0469 0.01-0.0449 0.6835-5.3262 0.01-0.0469v-0.0449l0.3516-3.1641-11.184-1.2442zm-646.1 31.639 0.1114 0.54687 0.014 0.0605 0.014 0.0625 1.6172 7.041 0.014 0.0605 0.016 0.0606 0.8515 3.3672 10.91-2.7617-0.8418-3.3223-0.012-0.0449-1.5586-6.7949-0.01-0.0391-0.1055-0.50782zm640.78-0.41602-1.1894 5.1543v0.0176l-1.0078 4.0605 10.92 2.7148 1.0136-4.0781 0.012-0.0469 0.01-0.0449 1.211-5.2461 0.012-0.0449 0.01-0.0469 0.3476-1.6289-11.006-2.3496zm-631.77 33.586 0.877 2.6914 0.019 0.06055 0.02 0.05859 2.375 6.7812 0.019 0.05859 0.023 0.05859 0.4336 1.1582 10.537-3.9531-0.3925-1.041-0.01-0.01563-2.3281-6.6484v-2e-3l-0.877-2.6894zm623.32-2.8652-0.01 0.0254-1.6816 4.9609-0.018 0.05078-0.01 0.02734-1.3848 3.8926-0.4414 1.1973 10.555 3.9023 0.4668-1.2637 0.024-0.0664 1.4121-3.9727 0.028-0.07812 1.7382-5.127 0.014-0.04492 0.016-0.04492 0.084-0.26367-10.717-3.4336zm-610.93 34.918 2.0429 4.5176 0.025 0.05469 0.027 0.05664 2.7207 5.6777 10.148-4.8633-2.668-5.5664-0.01-0.02344-2.0352-4.4922zm598.59-3.2188-0.022 0.04492-0.01 0.01953-1.6993 3.6973-1.707 3.6016-0.7852 1.6055 10.104 4.9531 0.7871-1.6055 0.016-0.0332 0.016-0.03125 1.7695-3.7305 0.016-0.0332 0.016-0.03125 1.7265-3.7617 0.014-0.0332 0.016-0.03125 0.4864-1.0957-10.287-4.5645zm-582.96 33.822 3.584 6.0488 0.031 0.05469 0.033 0.05078 2.2305 3.5859 9.5527-5.9473-2.166-3.4785-0.023-0.03906-3.5606-6.0117zm568.18-5.0488-1.9902 3.3867-0.037 0.06055-2.0293 3.3555-0.018 0.02734-0.019 0.0332-1.4551 2.3379 9.5566 5.9453 1.4922-2.3984 0.018-0.0293 0.018-0.03125 2.1035-3.4766 0.018-0.0293 0.019-0.03125 2.0625-3.5098 0.018-0.0293 0.018-0.03125 0.1464-0.25781-9.7714-5.5801zm-549.53 33.758 1.1446 1.5938 0.037 0.050781 0.037 0.048828 4.3125 5.7422 0.037 0.048828 0.039 0.048828 1.3047 1.6582 8.8457-6.957-1.2285-1.5605-0.014-0.019531-4.2833-5.6973-0.018-0.02344-1.0723-1.4961zm529.96-3.9766-0.029 0.03906-0.033 0.04492-4.707 6.1914-0.029 0.037109-0.1602 0.20117 8.7871 7.0312 0.1895-0.23828 0.086-0.10937 4.8555-6.3867 0.031-0.041016 0.031-0.042969 1.7266-2.3613-9.084-6.6445zm-508.38 30.715 2.7891 3.0996 0.041 0.04687 0.043 0.04492 4.8515 5.1602 8.1992-7.707-4.8183-5.127-0.033-0.03516-2.7051-3.0078zm488.38-6.3398-0.014 0.01367-5.2246 5.623-0.025 0.02539-1.4844 1.5234 8.0567 7.8574 1.5097-1.5469 0.047-0.04883 0.047-0.05078 5.4121-5.8262 0.094-0.10156 0.7539-0.85352-8.4296-7.4551zm-464.16 30.719 4.9179 4.3789 0.094 0.08204 3.5566 3.0273 7.2949-8.5684-3.4609-2.9453-0.014-0.01367-4.9043-4.3652zm436.35-3.5645-3.1934 2.6934 7.2559 8.6016 3.2422-2.7344 0.053-0.04492 0.051-0.04492 5.248-4.6484-7.4609-8.4238zm-409.81 25.221 1.5957 1.1836 0.102 0.07422 5.9864 4.2344 0.051 0.03711 0.053 0.03516 1.6035 1.082 6.291-9.332-1.5-1.0098-0.018-0.01172-5.8632-4.1465-0.029-0.02148-1.5684-1.1641zm385.48-6.1484-0.039 0.02734-5.2832 3.6504 6.3965 9.2578 5.3223-3.6777 0.057-0.03711 0.053-0.04102 3.8711-2.8125-6.6172-9.1035zm-356.75 25.025 4.3926 2.5469 0.057 0.0332 0.055 0.0293 5.4102 2.9746 5.4218-9.8594-5.4062-2.9746v-2e-3l-4.2832-2.4844zm330.62-8.3262-0.031 0.01953-6.7187 3.75-0.025 0.01367-0.6953 0.36523 5.2519 9.9531 0.8125-0.42773 0.059-0.03125 0.059-0.0332 6.8614-3.8301 0.058-0.0332 0.057-0.0332 2.1348-1.2598-5.7188-9.6914zm-300.21 24.094 1.1074 0.51367 0.057 0.02539 0.061 0.02734 6.916 3.0176 0.118 0.0508 2.3027 0.94141 4.2637-10.414-2.2558-0.92383-0.045-0.01758-6.7382-2.9434-1.0489-0.48633zm272.82-10.051-0.041 0.01758-7.0312 3.0938-0.049 0.01953-2.9551 1.2168 4.2812 10.406 3.0059-1.2363 0.062-0.0254 0.061-0.0273 7.1954-3.1621 0.061-0.02734 0.06-0.02734 0.1309-0.0625-4.7715-10.191zm-240.86 22.664 1.9688 0.66407 0.033 0.0117 0.035 0.01 4.0176 1.2988 0.033 0.0117 0.035 0.01 4.0234 1.2441 0.066 0.02 0.711 0.21093 3.1894-10.793-0.6426-0.18945-3.957-1.2226-0.066-0.0215-3.8848-1.2539v-2e-3l-0.062-0.0195-1.9023-0.64258zm204.68-8.7715-0.018 6e-3 -5.1718 1.5723 3.2734 10.766 5.3008-1.6113 0.064-0.0195 0.062-0.0215 5.4258-1.791-3.5293-10.686z" color="#000000" color-rendering="auto" image-rendering="auto" solid-color="#000000" style="isolation:auto;mix-blend-mode:normal;text-decoration-color:#000000;text-decoration-line:none;text-decoration-style:solid;text-indent:0;text-transform:none;white-space:normal"/>
    </g>
    <g transform="matrix(11.937 0 0 11.937 -2278.7 -741.16)">
     <line x1="46.221" x2="46.219" y1="69.887" y2="69.887"/>
     <path d="m46.253 74.524s-0.305-0.238-0.21-0.342"/>
     <path d="m45.183 75.201c-0.287-0.108-0.675-0.14-0.89-0.055l0.054 0.097 0.145 0.201 0.166-0.018c5e-3 0 0.13 4e-3 0.222 0.049l0.303-0.274"/>
     <path d="m46.1 63.101-0.078 0.067c-0.019 0.026-0.038 0.082-0.05 0.116-0.01 0.031-0.011 0.074-0.04 0.115 0 0-0.038 0.045-0.085 0.073 0.192 9e-3 0.381 0.026 0.568 0.054l-6e-3 -2e-3c0.049-0.021 0.09-0.064 0.09-0.064 0.034-0.035 0.038-0.076 0.052-0.109 0.015-0.036 0.04-0.086 0.059-0.111l0.085-0.056c-0.195-0.037-0.394-0.065-0.594-0.085l-1e-3 2e-3"/>
     <path d="m46.863 63.222-0.085 0.055c-0.02 0.021-0.048 0.074-0.063 0.109-0.016 0.027-0.021 0.07-0.055 0.107 0 0-0.043 0.041-0.092 0.061 0.188 0.035 0.374 0.08 0.554 0.129h-5e-3c0.051-0.02 0.097-0.054 0.097-0.054 0.038-0.034 0.048-0.075 0.065-0.104l0.074-0.1 0.09-0.046 1e-3 1e-3c-0.188-0.065-0.381-0.115-0.576-0.162l-5e-3 4e-3"/>
     <path d="m47.606 63.438-0.093 0.043-0.079 0.1c-0.017 0.027-0.029 0.07-0.066 0.098 0 0-0.048 0.037-0.101 0.053 0.183 0.055 0.361 0.123 0.533 0.201l-4e-3 -7e-3c0.053-7e-3 0.104-0.038 0.104-0.038 0.041-0.026 0.055-0.066 0.077-0.094l0.086-0.091 0.095-0.032c-0.178-0.088-0.362-0.164-0.551-0.234l-1e-3 1e-3"/>
     <path d="m48.313 63.751-0.095 0.029-0.089 0.088c-0.023 0.026-0.04 0.066-0.081 0.092 0 0-0.053 0.027-0.105 0.035 0.172 0.082 0.34 0.171 0.501 0.269l-4e-3 -5e-3c0.054 0 0.108-0.023 0.108-0.023 0.044-0.021 0.064-0.059 0.089-0.082l0.098-0.08 0.1-0.02c-0.166-0.109-0.338-0.211-0.517-0.305l-5e-3 2e-3"/>
     <path d="m48.975 64.153-0.102 0.018-0.099 0.076c-0.026 0.021-0.048 0.059-0.092 0.078 0 0-0.055 0.02-0.11 0.02 0.162 0.106 0.315 0.216 0.463 0.336l-3e-3 -4e-3c0.054 4e-3 0.111-0.012 0.111-0.012 0.045-0.019 0.07-0.051 0.098-0.072l0.107-0.064c0.034-0.012 0.101-8e-3 0.101-8e-3v2e-3c-0.149-0.133-0.307-0.254-0.472-0.369h-2e-3"/>
     <path d="m49.579 64.638s-0.069-4e-3 -0.104 4e-3l-0.108 0.064c-0.028 0.017-0.054 0.053-0.102 0.064 0 0-0.057 0.016-0.11 8e-3 0.146 0.124 0.285 0.254 0.415 0.391l-2e-3 -7e-3c0.054 0.015 0.11 5e-3 0.11 5e-3 0.049-0.01 0.079-0.041 0.108-0.057l0.113-0.052c0.036-7e-3 0.103 6e-3 0.103 6e-3v1e-3c-0.131-0.148-0.271-0.289-0.42-0.428h-3e-3"/>
     <path d="m50.112 65.2s-0.065-0.018-0.101-0.011l-0.117 0.046c-0.031 0.018-0.061 0.045-0.108 0.056 0 0-0.059 5e-3 -0.111-0.011 0.128 0.143 0.249 0.291 0.361 0.441l-1e-3 -4e-3c0.05 0.018 0.109 0.018 0.109 0.018 0.048-2e-3 0.081-0.029 0.112-0.041 0.034-0.018 0.091-0.035 0.122-0.037 0.035-2e-3 0.099 0.019 0.099 0.019-0.111-0.162-0.232-0.323-0.36-0.476h-5e-3"/>
     <path d="m50.57 65.823s-0.063-0.023-0.098-0.023c-0.031 2e-3 -0.088 0.02-0.124 0.034-0.031 0.011-0.066 0.036-0.114 0.036 0 0-0.059-2e-3 -0.108-0.023 0.108 0.16 0.209 0.32 0.299 0.486v-6e-3c0.048 0.025 0.107 0.032 0.107 0.032 0.049 7e-3 0.086-0.017 0.119-0.026 0.034-7e-3 0.092-0.021 0.123-0.021 0.037 4e-3 0.096 0.035 0.096 0.035l1e-3 2e-3c-0.088-0.182-0.188-0.353-0.295-0.525h-6e-3"/>
     <path d="m50.942 66.505s-0.06-0.033-0.096-0.037c-0.031 0-0.088 8e-3 -0.125 0.018-0.034 6e-3 -0.07 0.026-0.118 0.021 0 0-0.059-0.01-0.105-0.039 0.087 0.172 0.165 0.348 0.234 0.521v-5e-3c0.043 0.032 0.102 0.048 0.102 0.048 0.047 9e-3 0.085-7e-3 0.12-0.011 0.037-5e-3 0.096-0.012 0.126-4e-3 0.034 8e-3 0.09 0.041 0.09 0.041v2e-3c-0.064-0.186-0.139-0.373-0.225-0.555h-3e-3"/>
     <path d="m51.22 67.226s-0.054-0.039-0.089-0.049c-0.03-5e-3 -0.089-2e-3 -0.126 0-0.033 2e-3 -0.072 0.02-0.12 7e-3 0 0-0.056-0.019-0.1-0.051 0.064 0.183 0.12 0.364 0.166 0.548v-5e-3c0.041 0.034 0.096 0.06 0.096 0.06 0.044 0.016 0.086 4e-3 0.12 4e-3 0.036 0 0.095 1e-3 0.125 0.012 0.035 0.011 0.084 0.055 0.084 0.055v4e-3c-0.041-0.195-0.09-0.388-0.151-0.584h-5e-3"/>
     <path d="m51.404 67.979s-0.048-0.046-0.082-0.058c-0.028-0.01-0.088-0.018-0.123-0.018-0.035-4e-3 -0.077 8e-3 -0.122-0.011 0 0-0.053-0.022-0.092-0.06 0.042 0.188 0.071 0.373 0.092 0.561l1e-3 -4e-3c0.036 0.041 0.087 0.068 0.087 0.068 0.043 0.021 0.084 0.018 0.118 0.021 0.037 6e-3 0.096 0.018 0.123 0.029l0.077 0.066h-1e-3c-0.014-0.196-0.038-0.396-0.073-0.594h-5e-3"/>
     <path d="m51.488 68.748-0.075-0.067c-0.026-0.016-0.083-0.027-0.12-0.035-0.035-4e-3 -0.076 0-0.118-0.021 0 0-0.051-0.033-0.085-0.076 0.016 0.191 0.022 0.381 0.019 0.57l1e-3 -6e-3c0.029 0.047 0.076 0.081 0.076 0.081 0.041 0.026 0.083 0.026 0.116 0.037 0.037 0.01 0.092 0.028 0.118 0.044l0.066 0.075v1e-3c0.012-0.196 0.014-0.398 4e-3 -0.6l-2e-3 -3e-3"/>
     <path d="m51.47 69.524-0.064-0.08c-0.025-0.018-0.08-0.036-0.115-0.047-0.033-0.01-0.076-0.012-0.115-0.041 0 0-0.046-0.037-0.072-0.084-0.011 0.192-0.028 0.382-0.057 0.568l3e-3 -4e-3c0.024 0.045 0.064 0.088 0.064 0.088 0.037 0.032 0.08 0.037 0.11 0.051 0.035 0.018 0.087 0.04 0.111 0.059l0.057 0.088c0.037-0.197 0.065-0.394 0.082-0.596l-4e-3 -2e-3"/>
     <path d="m51.353 70.288-0.054-0.084c-0.022-0.021-0.075-0.048-0.109-0.063-0.029-0.016-0.073-0.021-0.106-0.055 0 0-0.041-0.043-0.061-0.093-0.035 0.186-0.077 0.375-0.131 0.557l4e-3 -6e-3c0.017 0.051 0.051 0.096 0.051 0.096 0.032 0.038 0.075 0.049 0.103 0.066l0.101 0.074 0.047 0.09-1e-3 2e-3c0.063-0.188 0.117-0.381 0.159-0.579l-3e-3 -5e-3"/>
     <path d="m51.15 71.04-0.035-0.096-0.093-0.084c-0.027-0.02-0.067-0.035-0.094-0.075 0 0-0.031-0.05-0.043-0.102-0.07 0.177-0.151 0.349-0.239 0.517l4e-3 -3e-3c6e-3 0.053 0.033 0.104 0.033 0.104 0.022 0.042 0.061 0.063 0.085 0.085l0.085 0.093 0.026 0.1c0.1-0.171 0.19-0.352 0.272-0.534l-1e-3 -5e-3"/>
     <path d="m50.825 71.741-0.03-0.095-0.089-0.092c-0.026-0.022-0.065-0.038-0.089-0.08 0 0-0.028-0.051-0.036-0.106-0.081 0.176-0.171 0.345-0.27 0.506l5e-3 -4e-3c2e-3 0.053 0.025 0.107 0.025 0.107 0.021 0.043 0.058 0.064 0.082 0.09l0.079 0.096 0.021 0.101c0.109-0.165 0.209-0.341 0.303-0.517l-1e-3 -6e-3"/>
     <path d="m50.421 72.406-0.016-0.101-0.077-0.104c-0.023-0.023-0.059-0.046-0.077-0.088 0 0-0.021-0.057-0.022-0.111-0.104 0.163-0.214 0.314-0.332 0.465l4e-3 -3e-3c-4e-3 0.054 0.012 0.109 0.012 0.109 0.015 0.046 0.049 0.073 0.068 0.098l0.066 0.108c0.013 0.035 8e-3 0.102 8e-3 0.102 0.131-0.148 0.252-0.308 0.368-0.473l-2e-3 -2e-3"/>
     <path d="m49.939 73.007s6e-3 -0.065-5e-3 -0.097l-0.062-0.11c-0.021-0.032-0.054-0.058-0.067-0.104 0 0-0.013-0.057-6e-3 -0.112-0.124 0.149-0.254 0.287-0.39 0.417h5e-3c-0.011 0.049-3e-3 0.108-3e-3 0.108 8e-3 0.05 0.039 0.077 0.056 0.108l0.051 0.114c8e-3 0.037-5e-3 0.103-5e-3 0.103h-1e-3c0.148-0.135 0.291-0.273 0.427-0.42v-7e-3"/>
     <path d="m49.379 73.544s0.016-0.064 0.01-0.102l-0.047-0.115c-0.016-0.031-0.047-0.063-0.053-0.109 0 0-5e-3 -0.059 7e-3 -0.109-0.141 0.129-0.288 0.246-0.44 0.36h6e-3c-0.019 0.047-0.019 0.106-0.019 0.106 3e-3 0.051 0.03 0.084 0.042 0.115 0.015 0.033 0.034 0.088 0.037 0.121 2e-3 0.035-0.02 0.1-0.02 0.1 0.163-0.111 0.322-0.232 0.478-0.361v-6e-3"/>
     <path d="m48.755 74.004s0.024-0.064 0.021-0.099c0-0.033-0.017-0.09-0.03-0.124-0.012-0.034-0.037-0.066-0.038-0.113 0 0 0-0.06 0.021-0.112-0.157 0.112-0.319 0.211-0.484 0.303h6e-3c-0.025 0.048-0.032 0.107-0.032 0.107-4e-3 0.047 0.019 0.084 0.027 0.117 8e-3 0.034 0.021 0.094 0.02 0.125-2e-3 0.034-0.032 0.094-0.032 0.094 0.177-0.088 0.351-0.188 0.521-0.293v-5e-3"/>
     <path d="m48.076 74.376s0.033-0.059 0.037-0.094c2e-3 -0.031-7e-3 -0.089-0.016-0.129-7e-3 -0.031-0.026-0.068-0.022-0.118 0 0 0.01-0.058 0.037-0.104-0.172 0.089-0.344 0.166-0.521 0.234h7e-3c-0.031 0.044-0.051 0.1-0.051 0.1-0.012 0.057-0.01 0.082-6e-3 0.123 4e-3 0.038-9e-3 0.098-0.014 0.129-6e-3 0.034-0.039 0.099-0.039 0.099 0.187-0.064 0.405-0.149 0.587-0.235l1e-3 -5e-3"/>
     <path d="m47.311 74.653s0.016-0.039 0.025-0.075c6e-3 -0.03 0.016-0.069 0.015-0.108-3e-3 -0.031-0.027-0.06-0.015-0.107 0 0 0.034-0.104 0.067-0.146-0.182 0.061-0.444 0.164-0.612 0.254-0.039 0.02-0.077 0.041-0.077 0.041-0.018 0.045-0.024 0.082-0.024 0.115-2e-3 0.035-8e-3 0.09-8e-3 0.129 0 0.08-0.075 0.19-0.075 0.19 0.196-0.032 0.442-0.147 0.606-0.243l0.098-0.05"/>
     <path d="m43.555 74.567 0.091-0.039 0.08-0.102c0.017-0.027 0.029-0.066 0.067-0.097 0 0 0.048-0.034 0.1-0.048-0.182-0.062-0.36-0.129-0.532-0.203l4e-3 4e-3c-0.053 8e-3 -0.105 0.039-0.105 0.039-0.041 0.027-0.056 0.065-0.076 0.092l-0.088 0.093-0.096 0.034v-3e-3c0.177 0.089 0.362 0.168 0.551 0.234l4e-3 -4e-3"/>
     <path d="m42.847 74.258 0.097-0.026 0.09-0.092c0.021-0.025 0.039-0.065 0.08-0.09 0 0 0.052-0.029 0.104-0.037-0.172-0.079-0.339-0.171-0.501-0.27l4e-3 4e-3c-0.055 4e-3 -0.109 0.027-0.109 0.027-0.043 0.02-0.064 0.057-0.089 0.084l-0.097 0.076-0.1 0.021c0.166 0.111 0.338 0.209 0.515 0.303h6e-3"/>
     <path d="m42.186 73.856 0.1-0.016 0.102-0.078c0.025-0.021 0.046-0.059 0.09-0.078 0 0 0.056-0.02 0.11-0.023-0.162-0.102-0.315-0.215-0.463-0.332l2e-3 6e-3c-0.053-6e-3 -0.111 0.012-0.111 0.012-0.045 0.013-0.07 0.049-0.098 0.07l-0.107 0.064c-0.035 0.012-0.102 8e-3 -0.102 8e-3l-1e-3 -4e-3c0.151 0.135 0.308 0.256 0.474 0.373l4e-3 -2e-3"/>
     <path d="m41.582 73.369s0.068 6e-3 0.102-3e-3l0.11-0.061c0.027-0.021 0.054-0.053 0.1-0.066 0 0 0.058-0.014 0.111-8e-3 -0.146-0.123-0.285-0.256-0.416-0.393l2e-3 6e-3c-0.052-0.012-0.111-2e-3 -0.111-2e-3 -0.047 7e-3 -0.076 0.039-0.105 0.056l-0.116 0.05c-0.035 8e-3 -0.101-4e-3 -0.101-4e-3 0.131 0.149 0.271 0.29 0.42 0.426l4e-3 -1e-3"/>
     <path d="m41.048 72.812s0.065 0.012 0.102 6e-3l0.116-0.047c0.031-0.014 0.062-0.045 0.109-0.052 0 0 0.058-5e-3 0.11 7e-3 -0.128-0.142-0.249-0.289-0.36-0.438l1e-3 5e-3c-0.051-0.02-0.11-0.02-0.11-0.02-0.048 3e-3 -0.081 0.027-0.113 0.041-0.035 0.016-0.089 0.033-0.12 0.037-0.036 2e-3 -0.1-0.02-0.1-0.02l-1e-3 -2e-3c0.113 0.166 0.232 0.325 0.361 0.482h5e-3"/>
     <path d="m40.593 72.184s0.062 0.022 0.098 0.022c0.03-1e-3 0.087-0.02 0.124-0.031 0.03-0.012 0.064-0.037 0.113-0.037 0 0 0.059 2e-3 0.109 0.021-0.109-0.158-0.209-0.318-0.3-0.485v7e-3c-0.047-0.025-0.106-0.031-0.106-0.031-0.047-6e-3 -0.083 0.018-0.116 0.024-0.037 0.011-0.096 0.021-0.126 0.021-0.035-6e-3 -0.095-0.032-0.095-0.032 0.089 0.178 0.187 0.35 0.294 0.521h5e-3"/>
     <path d="m40.22 71.506s0.06 0.03 0.096 0.034c0.03 4e-3 0.089-8e-3 0.125-0.016 0.034-8e-3 0.071-0.027 0.12-0.023 0 0 0.058 0.012 0.105 0.036-0.088-0.169-0.166-0.341-0.234-0.521v7e-3c-0.045-0.03-0.102-0.043-0.102-0.043-0.048-0.011-0.087 5e-3 -0.121 9e-3 -0.037 4e-3 -0.095 8e-3 -0.125 2e-3 -0.036-6e-3 -0.091-0.045-0.091-0.045 0.064 0.188 0.14 0.375 0.225 0.557l2e-3 3e-3"/>
     <path d="m39.941 70.78s0.053 0.039 0.089 0.049c0.03 0.01 0.089 5e-3 0.126 0 0.033-1e-3 0.073-0.017 0.121-8e-3 0 0 0.056 0.02 0.099 0.055-0.064-0.184-0.119-0.368-0.165-0.549v4e-3c-0.039-0.033-0.094-0.056-0.094-0.056-0.047-0.017-0.087-6e-3 -0.122-7e-3 -0.037 0-0.095-4e-3 -0.125-0.012l-0.083-0.059c0.04 0.196 0.089 0.392 0.15 0.582h4e-3"/>
     <path d="m39.757 70.03s0.048 0.047 0.083 0.059c0.03 8e-3 0.089 0.013 0.125 0.016 0.034 0 0.075-8e-3 0.122 0.01 0 0 0.053 0.023 0.091 0.063-0.04-0.188-0.071-0.377-0.091-0.563l-3e-3 7e-3c-0.034-0.044-0.084-0.07-0.084-0.07-0.044-0.024-0.086-0.021-0.12-0.021-0.036-7e-3 -0.095-0.017-0.122-0.033l-0.078-0.063v-1e-3c0.015 0.199 0.04 0.397 0.074 0.595l3e-3 1e-3"/>
     <path d="m39.673 69.261 0.074 0.067c0.028 0.015 0.086 0.026 0.122 0.034 0.033 8e-3 0.075 2e-3 0.118 0.025 0 0 0.05 0.029 0.083 0.072-0.017-0.191-0.021-0.379-0.018-0.571l-1e-3 7e-3c-0.031-0.045-0.076-0.082-0.076-0.082-0.04-0.026-0.083-0.026-0.116-0.033-0.036-0.014-0.092-0.032-0.117-0.048l-0.068-0.075c-0.012 0.2-0.012 0.398-4e-3 0.6l3e-3 4e-3"/>
     <path d="m39.691 68.485 0.065 0.079c0.024 0.016 0.079 0.034 0.115 0.048 0.032 0.012 0.075 0.012 0.113 0.038 0 0 0.045 0.038 0.073 0.085 0.01-0.191 0.028-0.379 0.057-0.566l-3e-3 5e-3c-0.023-0.049-0.064-0.091-0.064-0.091-0.037-0.031-0.078-0.038-0.11-0.051l-0.11-0.063-0.057-0.082v-1e-3c-0.037 0.196-0.063 0.395-0.082 0.593l3e-3 6e-3"/>
     <path d="m39.809 67.716 0.054 0.089c0.023 0.021 0.074 0.05 0.109 0.065 0.03 0.011 0.072 0.021 0.106 0.053 0 0 0.041 0.043 0.062 0.095 0.034-0.189 0.077-0.375 0.129-0.558l-2e-3 4e-3c-0.017-0.049-0.053-0.097-0.053-0.097-0.032-0.038-0.073-0.05-0.102-0.063l-0.103-0.074-0.045-0.092c-0.063 0.191-0.115 0.381-0.159 0.576l4e-3 2e-3"/>
     <path d="m40.026 66.974 0.042 0.094 0.099 0.077c0.029 0.019 0.07 0.03 0.101 0.067 0 0 0.034 0.051 0.049 0.101 0.058-0.183 0.126-0.363 0.201-0.532l-3e-3 1e-3c-0.011-0.05-0.04-0.102-0.04-0.102-0.027-0.044-0.067-0.056-0.093-0.077l-0.093-0.086-0.032-0.098c-0.085 0.179-0.164 0.362-0.232 0.551l1e-3 4e-3"/>
     <path d="m40.337 66.267 0.031 0.096 0.087 0.09c0.027 0.021 0.065 0.041 0.09 0.082 0 0 0.027 0.053 0.036 0.102 0.082-0.168 0.171-0.336 0.268-0.499l-4e-3 3e-3c-2e-3 -0.055-0.025-0.111-0.025-0.111-0.021-0.041-0.058-0.06-0.083-0.088l-0.079-0.096-0.021-0.1h1e-3c-0.109 0.164-0.21 0.338-0.303 0.517l2e-3 4e-3"/>
     <path d="m40.739 65.604 0.017 0.098 0.076 0.102c0.022 0.027 0.06 0.047 0.079 0.094 0 0 0.02 0.056 0.021 0.109 0.103-0.162 0.214-0.316 0.332-0.465l-4e-3 4e-3c3e-3 -0.057-0.012-0.109-0.012-0.109-0.015-0.048-0.048-0.075-0.069-0.1l-0.067-0.107c-0.01-0.034-6e-3 -0.104-6e-3 -0.104-0.129 0.149-0.253 0.311-0.369 0.475l2e-3 3e-3"/>
     <path d="m41.224 65.001s-8e-3 0.064 3e-3 0.1l0.062 0.111c0.02 0.027 0.054 0.053 0.066 0.103 0 0 0.013 0.054 8e-3 0.108 0.123-0.147 0.253-0.285 0.388-0.414l-4e-3 1e-3c0.012-0.055 4e-3 -0.113 4e-3 -0.113-0.01-0.046-0.042-0.075-0.058-0.106l-0.051-0.113c-8e-3 -0.035 5e-3 -0.102 5e-3 -0.102v-3e-3c-0.147 0.136-0.29 0.274-0.425 0.425v3e-3"/>
     <path d="m41.783 64.463s-0.016 0.069-0.01 0.104l0.048 0.116c0.015 0.029 0.044 0.061 0.051 0.107 0 0 7e-3 0.061-7e-3 0.112 0.143-0.128 0.291-0.25 0.442-0.362l-7e-3 4e-3c0.019-0.051 0.019-0.113 0.019-0.113-3e-3 -0.045-0.03-0.08-0.042-0.109-0.014-0.036-0.034-0.092-0.036-0.123-2e-3 -0.034 0.02-0.098 0.02-0.098-0.164 0.109-0.325 0.231-0.478 0.362"/>
     <path d="m42.406 64.008s-0.024 0.062-0.023 0.098c2e-3 0.03 0.019 0.087 0.032 0.124 0.012 0.029 0.038 0.064 0.039 0.111 0 0-2e-3 0.063-0.022 0.11 0.158-0.11 0.32-0.208 0.484-0.302l-5e-3 4e-3c0.024-0.051 0.032-0.109 0.032-0.109 3e-3 -0.049-0.019-0.084-0.026-0.116-0.01-0.036-0.021-0.097-0.021-0.124 2e-3 -0.039 0.032-0.098 0.032-0.098h1e-3c-0.177 0.091-0.351 0.188-0.521 0.297l-2e-3 5e-3"/>
     <path d="m43.085 63.636s-0.032 0.059-0.036 0.096c-2e-3 0.026 8e-3 0.088 0.017 0.123 7e-3 0.033 0.028 0.068 0.021 0.117 0 0-9e-3 0.061-0.036 0.106 0.17-0.089 0.344-0.163 0.519-0.233h-6e-3c0.03-0.047 0.046-0.1 0.046-0.1 0.01-0.051-7e-3 -0.089-0.012-0.125-3e-3 -0.034-8e-3 -0.096-2e-3 -0.123 7e-3 -0.037 0.044-0.091 0.044-0.091-0.187 0.063-0.373 0.137-0.554 0.224l-1e-3 6e-3"/>
     <path d="m43.805 63.354s-0.039 0.055-0.046 0.09c-7e-3 0.029-4e-3 0.09-1e-3 0.125 2e-3 0.035 0.018 0.072 6e-3 0.12 0 0-0.018 0.058-0.05 0.101 0.18-0.063 0.361-0.119 0.545-0.166h-5e-3c0.036-0.038 0.059-0.098 0.059-0.098 0.017-0.043 4e-3 -0.082 4e-3 -0.117 1e-3 -0.035 3e-3 -0.098 0.013-0.125 0.012-0.034 0.055-0.086 0.055-0.086h1e-3c-0.194 0.041-0.387 0.09-0.579 0.152l-2e-3 4e-3"/>
     <path d="m44.556 63.173s-0.044 0.045-0.058 0.082c-0.012 0.026-0.016 0.086-0.018 0.124-2e-3 0.032 8e-3 0.076-0.011 0.118 0 0-0.022 0.053-0.061 0.093 0.188-0.04 0.375-0.07 0.562-0.091l-4e-3 -2e-3c0.041-0.036 0.071-0.086 0.071-0.086 0.021-0.045 0.015-0.086 0.019-0.119 5e-3 -0.037 0.017-0.097 0.03-0.121l0.065-0.079h2e-3c-0.198 0.013-0.397 0.037-0.595 0.073l-2e-3 8e-3"/>
     <path d="m45.326 63.085-0.068 0.076c-0.016 0.027-0.029 0.084-0.035 0.12-6e-3 0.033-1e-3 0.077-0.025 0.118 0 0-0.031 0.05-0.073 0.084 0.19-0.014 0.381-0.022 0.569-0.016l-4e-3 -2e-3c0.044-0.032 0.08-0.078 0.08-0.078 0.027-0.041 0.027-0.083 0.036-0.115 9e-3 -0.039 0.028-0.093 0.045-0.115l0.075-0.07h2e-3c-0.199-0.011-0.398-0.014-0.599-5e-3l-3e-3 3e-3"/>
     <path d="m43.89 74.548s0.063 0.317 0.272 0.328c0.04-0.129 0.219-0.283 0.328-0.359l0.041-0.051c-0.034-0.264 0.086-0.41 0.086-0.41l-0.119 0.029c-0.254 0.068-0.48 0.243-0.611 0.463h3e-3"/>
     <path d="m44.268 75.604c0.043-0.012 0.084-0.049 0.099-0.066h2e-3c-0.146-0.114-0.238-0.294-0.234-0.494-0.267-0.031-0.327-0.332-0.327-0.332-0.036 0.104-0.058 0.213-0.061 0.326-4e-3 0.206 0.057 0.402 0.162 0.564h3e-3c1e-3 1e-3 0.207 0.044 0.356 2e-3"/>
     <path d="m44.846 75.659c-0.037 4e-3 -0.076 8e-3 -0.115 8e-3 -0.075 0-0.146-0.018-0.212-0.044h-1e-3c-0.057 0.184-0.47 0.143-0.47 0.143 0.146 0.144 0.344 0.249 0.558 0.279l-3e-3 -5e-3s0.233-0.048 0.242-0.385l1e-3 4e-3"/>
     <path d="m44.97 75.634 8e-3 -4e-3 0.178 0.041c0.33 0.082 0.391 0.136 0.391 0.136s-0.376 0.353-0.707 0.267c0 0 0.247-0.179 0.138-0.443"/>
     <path d="m46.08 75.55c-0.25-0.199-0.494-0.232-0.677-0.293l-0.365 0.254 0.435 0.148c0.132 0.031 0.167 0.094 0.332 0.202 0 0 0.385-0.222 0.275-0.311"/>
     <path d="m46.829 75.921c-0.142 0.142-0.376 0.152-0.376 0.152-0.166 4e-3 -0.322-0.011-0.511-0.129 0 0 0.322-0.213 0.307-0.324 0.074 0.019 0.298 0.058 0.356 0.018-1e-3 0 0.078 0.193 0.224 0.283"/>
     <path d="m46.253 74.524c0.166-0.137 0.312-0.189 0.424-0.154 0.386-0.168 0.449-0.183 0.449-0.183-0.151-0.168-0.308-0.206-0.57-0.195-0.119 5e-3 -0.483 0.137-0.54 0.22"/>
     <path d="m46.13 74.606s-0.252-0.214-0.205-0.364c-0.283 0.247-0.397 0.372-0.63 0.372-0.059 0.012-7e-3 1e-3 -7e-3 1e-3 -0.029 0.038-0.048 0.087-0.06 0.12-0.011 0.035-0.023 0.075-0.023 0.107-3e-3 0.098 4e-3 0.127 4e-3 0.127 0.256 0.016 0.24 0.023 0.474-0.039 0 0 0.16-0.061 0.316-0.211l0.131-0.113"/>
     <path d="m45.089 74.985s-0.027-2e-3 3e-3 -0.152c0.011-0.044 0.026-0.074 0.04-0.107 0.013-0.033 0.028-0.077 0.059-0.115 0 0-0.048 0.027 0 0l-0.072 5e-3c-0.192-0.016-0.29-0.032-0.474-0.067-0.049-3e-3 0 0 0 0-0.06 0.016-0.144 0.072-0.159 0.102l-0.069 0.069-0.068 0.082c0.192 0.085 0.546 0.191 0.74 0.183"/>
     <path d="m44.858 74.091c0.031-0.047 0.092-0.031 0.138-0.037 0.229-0.025 0.552 0.129 0.619 0.276l-0.104 0.08c-0.088 0.075-0.211 0.091-0.211 0.091l-0.059-0.023c-0.071-0.03-0.179-0.039-0.261-0.041-0.083-4e-3 -0.174-0.021-0.245 4e-3 -0.086-0.09 0.123-0.35 0.123-0.35"/>
     <path d="m43.915 75.79c-0.082 0.057-0.134 0.107-0.134 0.107l-0.083 0.082 4e-3 -4e-3s-0.268-0.313-0.476-0.133h-1e-3c0.089-0.109 0.167-0.211 0.211-0.254 0.046-0.048 0.1-0.096 0.183-0.139l-0.023 0.014 0.086-0.033c-1e-3 1e-3 0.054 0.26 0.233 0.36"/>
     <path d="m43.086 76.017c0.272-0.225 0.496 0.072 0.496 0.072l-0.203 0.199-0.293-0.271"/>
     <polyline points="43.255 76.405 43.292 76.364 43.024 76.105 42.987 76.147 43.255 76.405"/>
     <path d="m42.916 76.198c-0.093 0.063-0.152 0.113-0.152 0.113l0.301 0.355 0.124-0.188-0.273-0.28"/>
     <path d="m47.894 76.295c0.091 0.065 0.148 0.122 0.148 0.122l-0.313 0.338-0.119-0.191 0.284-0.269"/>
     <polyline points="47.812 76.251 47.774 76.208 47.494 76.458 47.534 76.499 47.812 76.251"/>
     <path d="m47.73 76.105c-0.262-0.235-0.498 0.054-0.498 0.054l0.196 0.205 0.302-0.259"/>
     <path d="m47.222 75.521c-0.359-0.194-0.548 0.08-0.548 0.08 0.221 0.108 0.394 0.35 0.394 0.35l0.055 0.095-4e-3 -5e-3s0.278-0.303 0.48-0.113h1e-3c-0.085-0.114-0.159-0.213-0.202-0.256-0.035-0.042-0.097-0.095-0.176-0.151"/>
     <path d="m45.886 74.94c-0.03 0.016 0.19 0.092 0.54 0.043l4e-3 -5e-3 0.059-0.081c0.013-0.029 0.037-0.097 0.04-0.131 3e-3 -0.035 0.014-0.059 0.015-0.105 0 0 0-0.047 0.016-0.088-0.039 0.021-0.248 0.091-0.248 0.091-0.057 0.013-0.096 0.022-0.096 0.022l-0.084 0.074c-0.017 0.014-0.057 0.05-0.101 0.086l-0.145 0.094"/>
     <path d="m47.353 75.437c0.217-0.248 0.125-0.545 0.084-0.682l-0.425 0.196c6e-3 0.019 0.07 0.14-0.048 0.276l0.389 0.21"/>
     <path d="m46.521 75.541c0 5e-3 0.286-0.265 0.47-0.184l-0.041-0.038c-0.166-0.123-0.365-0.193-0.563-0.2-0.177-5e-3 -0.487 0.048-0.558 0.165 0 0 0.268 0.051 0.435 0.223 0.016 0.014 0.087-4e-3 0.257 0.034"/>
     <path d="m42.125 68.897 0.172-0.342 0.377 0.061-0.271-0.274 0.171-0.339-0.34 0.176-0.272-0.27 0.062 0.379-0.339 0.174 0.378 0.061 0.062 0.374m2.599 1.014-0.01 2e-3c-0.198 0.02-0.45 0.039-0.683 0.092-0.11-0.438-0.425-0.994-0.966-0.916-0.465 0.066-0.659 0.543-0.548 0.969-0.663 0.092-1.218-0.445-1.352-1.06-0.199-0.913 0.466-1.835 1.43-1.835 1.353 2e-3 2.083 1.789 2.129 2.748z"/>
     <path d="m49.034 68.899 0.063-0.377 0.378-0.057-0.339-0.178 0.062-0.377-0.271 0.268-0.34-0.173 0.17 0.341-0.272 0.27 0.38-0.059 0.169 0.342m-2.596 1.014c0.046-0.958 0.775-2.748 2.129-2.748 0.964-2e-3 1.629 0.922 1.431 1.836-0.134 0.613-0.692 1.148-1.353 1.057 0.111-0.422-0.083-0.902-0.547-0.968-0.542-0.079-0.857 0.482-0.967 0.913-0.233-0.047-0.486-0.07-0.68-0.09z"/>
     <path d="m45.583 70.526c0.875 0 1.578-0.081 1.578-0.136 0-0.056-0.708-0.144-1.583-0.144-0.874 0-1.583 0.088-1.583 0.144 0 0.055 0.715 0.136 1.588 0.136m-4e-3 0.198c-1.011 0-1.831-0.148-1.831-0.333s0.82-0.336 1.831-0.336 1.831 0.151 1.831 0.336-0.821 0.333-1.831 0.333z"/>
     <path d="m47.068 70.788c-0.186 0.037-0.402 0.068-0.639 0.092l1e-3 -4e-3c0.045 0.402 0.376 1.27 0.947 1.27 0.417 0 0.742-0.367 0.775-0.766-0.489 0.234-0.987-0.012-1.089-0.595l5e-3 3e-3"/>
     <path d="m44.725 70.88c-0.233-0.023-0.448-0.055-0.633-0.09v-8e-3c-0.096 0.598-0.598 0.844-1.09 0.605 0.033 0.399 0.358 0.769 0.775 0.769 0.574 0 0.907-0.88 0.948-1.279v3e-3"/>
     <path d="m45.579 64.371c0.244 0.265 0.649 0.573 0.732 0.638 0.624 0.469 0.918 1.111 0.921 1.674 8e-3 1.042-0.866 1.953-0.976 3.211-0.178-0.022-0.367-0.029-0.564-0.031 0.022-1.271-0.026-3-0.112-4.25-0.086 1.25-0.135 2.979-0.112 4.25-0.196 2e-3 -0.386 9e-3 -0.563 0.031-0.109-1.258-0.985-2.169-0.979-3.211 6e-3 -0.563 0.299-1.205 0.922-1.674 0.084-0.065 0.487-0.373 0.731-0.638" clip-rule="evenodd" fill-rule="evenodd"/>
     <path d="m45.579 73.31c0.488-0.216 0.991-0.672 1.205-1.139-0.309-0.432-0.467-0.898-0.516-1.275-0.18 0.015-0.369 0.021-0.565 0.021-0.025 0.339-0.025 1.058-0.123 1.448-0.097-0.391-0.097-1.109-0.121-1.448-0.197 0-0.388-6e-3 -0.566-0.021-0.049 0.377-0.207 0.844-0.516 1.275 0.212 0.467 0.714 0.923 1.202 1.139" clip-rule="evenodd" fill-rule="evenodd"/>
    </g>
   </g>
   <g transform="matrix(-.094735 .00082464 .0040111 -.087893 256.43 197.12)" fill="#0094de" fill-rule="evenodd" stroke-width="1px">
    <path d="m-115.19-871.19 8.6677 1.3656 26.934 29.861 3.4933-22.173 8.0509 1.2684-5.4881 34.833-7.4666-1.1764-27.999-31.127-4.2656 27.075-8.0185-1.2633z"/>
    <path d="m-98.659-823.6q7.085 1.9985 11.295 5.4739 3.0964 2.5807 5.1442 6.095 2.0388 3.5458 2.4799 7.1873 0.6122 4.8507-0.98484 10.512-2.8907 10.248-10.979 14.591-8.0974 4.3744-19.421 1.1804-11.229-3.1673-15.864-11.065-4.604-7.8889-1.7222-18.105 2.9175-10.343 10.934-14.672 8.0479-4.3201 19.118-1.1974zm-2.4049 9.7363q-7.8758-2.2216-12.982 0.26488-5.0746 2.4954-6.6538 8.0938-1.5792 5.5984 1.4296 10.306 3.0315 4.7478 11.097 7.0229 7.9707 2.2484 12.883-0.15621 4.9035-2.3729 6.5362-8.1612 1.6327-5.7882-1.3533-10.455-2.9544-4.6578-10.957-6.915z"/>
    <path d="m-136.4-779.76 44.241 19.075-3.7474 8.6913-37.352 5.3684 29.545 12.739-3.5782 8.299-44.241-19.075 3.8645-8.963 36.54-5.3961-28.85-12.439z"/>
    <path d="m-177.51-699.74 5.3865-9.1087 11.561 1.9497 9.8028-16.577-7.3957-8.9933 5.2527-8.8824 31.918 40.676-5.236 8.8541zm25.524-5.7145 18.768 3.386-12.076-14.701z"/>
    <path d="m-179.58-678.94-4.9928 7.48q-2.3004-1.5022-4.1947-1.2904-1.8943 0.21184-3.3524 1.9485-1.8385 2.1897-1.114 5.4156 0.72449 3.2258 6.7079 8.9789-0.85584-5.2671 2.5041-9.269 3.6558-4.3543 9.6659-4.715 6.0141-0.31449 11.4 4.2077 5.6127 4.7124 6.2463 10.909 0.63765 6.2426-3.6944 11.402-4.7124 5.6127-12.088 5.5561-7.3509-0.0355-17.293-8.3825-10.118-8.495-11.449-16.007-1.3315-7.5116 3.719-13.527 3.6347-4.3291 8.165-5.074 4.5555-0.72381 9.7703 2.3671zm2.014 28.982q3.423 2.8739 6.642 2.8732 3.1978 0.0244 4.9307-2.0395 1.6483-1.9632 1.1866-4.5822-0.4576-2.5727-3.9813-5.5311-3.574-3.0007-6.4437-3.0071-2.8445 0.0148-4.6196 2.129-1.7117 2.0387-1.2631 4.7754 0.42745 2.7619 3.5484 5.3822z"/>
    <path d="m-216.3-636 6.2218 6.8243-13.406 12.222-6.2218-6.8243z"/>
    <path d="m-244.4-607.76-7.3223 6.0674q-3.3787-3.4673-6.7814-3.8627-3.4299-0.37694-7.104 2.11-3.8918 2.6343-4.7461 5.5936-0.86303 3.0049 0.62911 5.2094 0.95791 1.4152 2.4648 1.8239 1.4981 0.45434 4.0638-0.21087 1.7468-0.46804 7.629-2.6241 7.5642-2.7786 11.761-2.2065 5.9031 0.80619 9.1084 5.5417 2.0632 3.0482 2.1355 6.8486 0.0635 3.8461-2.2356 7.4262-2.3264 3.5986-6.9258 6.7118-7.5115 5.0843-13.523 4.3518-6.0392-0.71408-9.9508-6.0827l7.8163-5.8065q2.5987 2.7254 5.216 2.8984 2.6084 0.21865 6.0104-2.084 3.5108-2.3764 4.5212-5.1636 0.6528-1.7911-0.39722-3.3424-0.95792-1.4152-2.837-1.6116-2.3899-0.24753-9.2079 2.3435-6.818 2.591-10.634 2.9916-3.8252 0.44619-7.1537-1.0708-3.3373-1.4714-5.8979-5.2544-2.3211-3.4292-2.4424-7.7124t2.3676-8.1108q2.5072-3.8004 7.7054-7.3189 7.5659-5.1212 13.979-4.3824 6.4315 0.76601 11.752 6.9268z"/>
    <path d="m-310.69-565.89-9.7706 1.5626q-1.6032-8.0215 1.1926-13.73 2.7812-5.6639 9.7114-9.1462 8.5746-4.3086 17.032-1.2389 8.4717 3.099 13.577 13.259 5.4005 10.748 2.8311 19.468-2.5547 8.7499-11.599 13.295-7.8992 3.9692-15.179 1.7791-4.3235-1.2848-8.3887-5.7153l7.5711-6.3789q2.4456 2.964 5.8568 3.6774 3.3818 0.72816 6.8469-1.013 4.7865-2.4051 6.0554-7.3459 1.2395-4.926-2.6264-12.62-4.102-8.1635-8.7797-10.153-4.6776-1.9896-9.3761 0.37132-3.4651 1.7411-4.8545 5.1977t-0.10027 8.7303z"/>
    <path d="m-323.43-553.1q2.3578 6.9737 1.8718 12.411-0.37773 4.0132-2.1183 7.6892-1.7717 3.6866-4.5258 6.1094-3.6547 3.2478-9.2274 5.1319-10.087 3.4104-18.242-0.80524-8.1866-4.2051-11.955-15.351-3.7367-11.052 0.1562-19.341 3.9034-8.258 13.959-11.658 10.18-3.442 18.284 0.72193 8.1138 4.195 11.798 15.091zm-9.3902 3.5217q-2.6209-7.752-7.559-10.558-4.9276-2.7745-10.438-0.91141-5.5105 1.8631-7.6917 7.0064-2.2018 5.1849 0.4823 13.124 2.6525 7.8454 7.4135 10.538 4.7298 2.7026 10.427 0.77636t7.8579-7.0278q2.1711-5.0705-0.49194-12.947z"/>
    <path d="m-371.73-512.22-9.5578 1.8102-4.8558-25.638q-1.1558-6.1028-1.8535-7.8437-1.1639-2.7899-3.7928-4.1316-2.6551-1.3033-6.6591-0.54499-4.0685 0.77056-5.8232 2.8088-1.7485 2.0705-1.7096 4.5717 0.0389 2.5012 1.103 8.1197l4.9598 26.187-9.5578 1.8102-4.709-24.863q-1.6145-8.5245-1.5062-12.191 0.10836-3.6664 1.7485-6.4856 1.6079-2.8131 4.82-4.9267 3.2182-2.0812 8.8367-3.1454 6.7809-1.2843 10.594-0.40096 3.787 0.92172 6.2921 3.0228 2.5113 2.1333 3.6769 4.7556 1.707 3.8912 3.2114 11.834z"/>
    <path d="m-437.72-550.84 2.6183 39.942 14.265-0.93509 0.5331 8.1328-38.204 2.5043-0.53311-8.1328 14.232-0.93294-2.6182-39.942z"/>
    <path d="m-464.46-533.56-9.4984 0.45819q-0.6214-4.8012-3.1057-7.1597-2.5172-2.3601-6.9485-2.5762-4.694-0.22886-7.1534 1.6254-2.4938 1.8855-2.6235 4.5443-0.0832 1.7069 0.87674 2.9382 0.92554 1.2625 3.377 2.2704 1.6781 0.67406 7.6771 2.4801 7.7179 2.3176 10.731 5.2941 4.2377 4.1879 3.9592 9.8994-0.17924 3.6764-2.4024 6.7596-2.2576 3.1144-6.2454 4.598-4.0206 1.482-9.568 1.2116-9.0597-0.4417-13.429-4.636-4.4018-4.1959-4.3084-10.838l9.737 0.047q0.44283 3.7396 2.4324 5.4489 1.9551 1.7405 6.0582 1.9405 4.2344 0.20645 6.7154-1.4164 1.5972-1.0408 1.6884-2.9118 0.0832-1.7069-1.3019-2.9918-1.763-1.6324-8.7715-3.6521t-10.302-3.99q-3.3274-1.939-5.0792-5.1502-1.7862-3.18-1.5638-7.7426 0.20165-4.1359 2.6754-7.6346 2.4738-3.4987 6.7618-5.0664 4.2864-1.5349 10.556-1.2292 9.1253 0.4449 13.811 4.8849 4.6845 4.4729 5.2427 12.594z"/>
    <path d="m-537.38-507.32-17.365-3.8149q-5.874-1.2904-8.758-2.8661-3.8728-2.1294-6.1418-5.8917-2.2691-3.7623-2.8155-8.6266-0.55352-4.8323 0.89908-11.445 1.2763-5.8098 3.6445-9.6974 2.8936-4.7479 6.8658-7.2064 3.0004-1.8644 7.5015-2.2888 3.3642-0.30401 8.6284 0.85243l17.879 3.9277zm-7.7524-10.048 6.847-31.168-7.0938-1.5584q-3.9802-0.87438-5.8444-0.81283-2.438 0.0701-4.2499 1.1189-1.8439 1.0418-3.4979 3.9759-1.661 2.9662-2.8598 8.4229-1.1988 5.4568-0.87748 8.5892 0.32127 3.1325 1.695 5.1503t3.9109 3.1808q1.8914 0.88657 7.7012 2.1629z"/>
    <path d="m-572.75-565.01-15.795 45.516-33.749-11.712 2.6721-7.6998 24.559 8.5226 3.5017-10.09-22.851-7.93 2.6613-7.6687 22.851 7.93 4.299-12.388-25.428-8.8243 2.6613-7.6687z"/>
    <path d="m-666.03-606.38 9.3347 4.9845-1.4441 11.635 16.988 9.0712 8.6626-7.7805 9.1028 4.8607-39.247 33.66-9.0738-4.8452zm6.8211 25.251-2.5652 18.897 14.161-12.705z"/>
    <path d="m-668.97-608.51-27.549 39.525-16.797-11.707q-6.3358-4.4161-8.442-7.4865-2.1519-3.0622-1.9794-6.988 0.17249-3.9258 2.6155-7.4307 3.1007-4.4486 7.7454-5.5375 4.626-1.062 10.356 1.81-1.5359-3.3139-1.9484-6.2854-0.43947-2.9903-0.0839-9.5926l0.54852-11.075 9.5442 6.6524-0.22501 12.622q-0.1399 6.7526 0.16562 8.7282 0.28671 2.0025 1.2532 3.3171 0.9477 1.3416 3.6977 3.2584l1.6177 1.1275 11.501-16.5zm-23.879 17.247-5.9044-4.1155q-5.7427-4.0027-7.5099-4.5134t-3.4029 0.11184-2.876 2.402q-1.3906 1.9951-1.1578 3.96 0.18705 1.9731 1.9027 3.6496 0.87664 0.81132 5.7296 4.1939l6.228 4.341z"/>
    <path d="m-735.7-637.33-5.406 6.0554-15.641-13.964 12.782-14.317q4.2497-0.17097 10.099 2.0114 5.803 2.185 10.24 6.1464 5.6386 5.0339 7.7297 11.13 2.0692 6.1206 0.25986 12.391-1.8312 6.2951-6.4493 11.468-5.012 5.6141-11.261 7.8768-6.2493 2.2627-12.864 0.54268-5.0544-1.2964-10.203-5.8925-6.6928-5.975-7.9267-12.143-1.2804-6.1653 2.062-12.08l8.4114 5.0863q-1.6038 3.3262-0.85237 6.7284 0.70499 3.4048 3.843 6.2063 4.756 4.246 10.267 3.7475 5.4868-0.52037 10.783-6.4532 5.7124-6.3986 5.7357-12.149 1e-3 -5.7259-4.6075-9.8405-2.28-2.0354-5.3478-3.1883-3.1143-1.1502-5.8949-1.3418l-4.0709 4.5599z"/>
    <path d="m-744.49-669.84-35.961 32.062-23.773-26.664 6.0834-5.4239 17.3 19.403 7.9722-7.1079-16.097-18.054 6.0589-5.402 16.097 18.054 9.7874-8.7264-17.912-20.09 6.0589-5.402z"/>
    <path d="m-773.14-702.51-39.222 27.979-5.4966-7.7052 14.741-34.737-26.192 18.685-5.2485-7.3574 39.222-27.979 5.6683 7.946-14.298 34.057 25.577-18.246z"/>
    <path d="m-805.27-750.56-34.819 19.745 7.0519 12.435-7.0896 4.0204-18.886-33.304 7.0896-4.0204 7.0356 12.407 34.819-19.745z"/>
    <path d="m-818.91-775.96-43.454 20.806-4.2009-8.7739 43.454-20.806z"/>
    <path d="m-826.86-792.01-44.957 17.322-3.403-8.8319 22.933-29.967-30.022 11.568-3.2494-8.4332 44.957-17.322 3.5093 9.1079-22.334 29.42 29.317-11.296z"/>
    <path d="m-854.13-877.94 2.6439 10.247-9.5456 6.8074 4.8115 18.648 11.59 1.1162 2.5782 9.992-51.339-6.1332-2.57-9.9602zm-13.982 22.105-15.652 10.895 18.937 1.834z"/>
   </g>
  </g>
 </g>
</svg>
