<?xml version="1.0" encoding="UTF-8" standalone="no"?>
<!-- Created with Inkscape (http://www.inkscape.org/) -->

<svg
   xmlns:dc="http://purl.org/dc/elements/1.1/"
   xmlns:cc="http://creativecommons.org/ns#"
   xmlns:rdf="http://www.w3.org/1999/02/22-rdf-syntax-ns#"
   xmlns:svg="http://www.w3.org/2000/svg"
   xmlns="http://www.w3.org/2000/svg"
   xmlns:sodipodi="http://sodipodi.sourceforge.net/DTD/sodipodi-0.dtd"
   xmlns:inkscape="http://www.inkscape.org/namespaces/inkscape"
   width="1150"
   height="140"
   viewBox="0 0 304.27084 37.041667"
   version="1.1"
   id="svg4491"
   inkscape:version="0.92.4 (5da689c313, 2019-01-14)"
   sodipodi:docname="principalMini.svg">
  <defs
     id="defs4485" />
  <sodipodi:namedview
     id="base"
     pagecolor="#ffffff"
     bordercolor="#666666"
     borderopacity="1.0"
     inkscape:pageopacity="0.0"
     inkscape:pageshadow="2"
     inkscape:zoom="0.7"
     inkscape:cx="-417.21924"
     inkscape:cy="291.46727"
     inkscape:document-units="mm"
     inkscape:current-layer="layer1"
     showgrid="false"
     inkscape:window-width="1920"
     inkscape:window-height="996"
     inkscape:window-x="-8"
     inkscape:window-y="-8"
     inkscape:window-maximized="1"
     showguides="true"
     inkscape:guide-bbox="true"
     units="px"
     inkscape:pagecheckerboard="true">
    <sodipodi:guide
       position="1977.5714,777.11905"
       orientation="0,1"
       id="guide6891"
       inkscape:locked="false" />
    <sodipodi:guide
       position="1073.3544,205.263"
       orientation="0,1"
       id="guide6893"
       inkscape:locked="false" />
  </sodipodi:namedview>
  <metadata
     id="metadata4488">
    <rdf:RDF>
      <cc:Work
         rdf:about="">
        <dc:format>image/svg+xml</dc:format>
        <dc:type
           rdf:resource="http://purl.org/dc/dcmitype/StillImage" />
        <dc:title />
      </cc:Work>
    </rdf:RDF>
  </metadata>
  <g
     inkscape:label="Capa 1"
     inkscape:groupmode="layer"
     id="layer1"
     transform="translate(0,-259.95833)">
    <g
       style="font-style:normal;font-weight:normal;font-size:115.66796112px;line-height:125%;font-family:Sans;letter-spacing:0px;word-spacing:0px;fill:#ffffff;fill-opacity:1;stroke:none"
       id="text4334"
       transform="matrix(0.16923302,0,0,0.16923302,88.888981,114.25838)">
      <path
         d="m 194.29816,958.23927 10.33557,-0.90366 c 0.48946,4.14178 1.62845,7.5399 3.41695,10.19437 1.78846,2.6545 4.56532,4.80068 8.33058,6.43855 3.7652,1.63788 8.00108,2.45682 12.70766,2.45681 4.17936,10e-6 7.86929,-0.62125 11.06978,-1.86379 3.2004,-1.24251 5.5819,-2.94628 7.14453,-5.1113 1.56252,-2.16499 2.3438,-4.52768 2.34386,-7.08805 -6e-5,-2.59799 -0.75311,-4.86654 -2.25914,-6.80566 -1.50615,-1.93907 -3.9912,-3.56753 -7.45516,-4.88539 -2.22154,-0.86597 -7.13516,-2.21204 -14.74089,-4.03822 -7.6058,-1.82609 -12.9336,-3.54869 -15.98341,-5.16778 -3.95351,-2.07083 -6.89981,-4.6406 -8.83889,-7.70931 -1.9391,-3.06861 -2.90865,-6.50439 -2.90864,-10.30733 -1e-5,-4.17934 1.18604,-8.08577 3.55815,-11.71929 2.37208,-3.63337 5.83609,-6.3914 10.39204,-8.2741 4.5559,-1.88253 9.62014,-2.82384 15.19271,-2.82392 6.13729,8e-5 11.54981,0.98846 16.23757,2.96512 4.68766,1.97683 8.29287,4.88547 10.81563,8.72593 2.52264,3.8406 3.87813,8.18944 4.06646,13.04653 l -10.505,0.7907 c -0.56485,-5.23361 -2.4757,-9.1871 -5.73257,-11.86049 -3.25698,-2.67324 -8.06706,-4.00989 -14.43026,-4.00997 -6.62684,8e-5 -11.45575,1.21436 -14.48673,3.64286 -3.03104,2.42865 -4.54654,5.35611 -4.54652,8.78241 -2e-5,2.97459 1.07307,5.42199 3.21927,7.34221 2.10851,1.92032 7.61516,3.88765 16.51996,5.902 8.90473,2.01444 15.01382,3.77469 18.32728,5.28074 4.81943,2.22153 8.37757,5.03604 10.67443,8.44353 2.29672,3.40757 3.44512,7.33282 3.44519,11.77577 -7e-5,4.40534 -1.26142,8.55651 -3.78406,12.45351 -2.52277,3.89702 -6.1468,6.92803 -10.87211,9.09304 -4.72542,2.165 -10.04381,3.24751 -15.95518,3.24751 -7.49284,0 -13.77136,-1.09192 -18.83557,-3.27575 -5.06426,-2.18383 -9.03658,-5.469 -11.91697,-9.8555 -2.88041,-4.38648 -4.39591,-9.34717 -4.54652,-14.88208 z"
         style="font-variant:normal;font-stretch:normal;font-family:Arial;-inkscape-font-specification:Arial;fill:#ffffff"
         id="path3823"
         inkscape:connector-curvature="0" />
      <path
         d="m 313.12892,962.8705 9.99669,1.29901 c -1.09197,6.89039 -3.88765,12.28408 -8.38705,16.18109 -4.4995,3.89701 -10.02498,5.84552 -16.57644,5.84552 -8.20823,0 -14.8068,-2.68273 -19.79572,-8.04818 -4.98894,-5.36545 -7.4834,-13.05593 -7.4834,-23.07147 0,-6.47617 1.07309,-12.14284 3.21928,-17.00003 2.14617,-4.8571 5.41251,-8.49996 9.79902,-10.92859 4.38647,-2.42851 9.1589,-3.6428 14.3173,-3.64286 6.51381,6e-5 11.84161,1.64735 15.98341,4.94187 4.1417,3.29463 6.79619,7.97293 7.96347,14.0349 l -9.88374,1.52492 c -0.94135,-4.02875 -2.60747,-7.05976 -4.99835,-9.09303 -2.39096,-2.03318 -5.28077,-3.04979 -8.66945,-3.04984 -5.12074,5e-5 -9.28132,1.8356 -12.48174,5.50665 -3.20047,3.67115 -4.80069,9.47901 -4.80068,17.42362 -1e-5,8.05762 1.54373,13.91255 4.63124,17.56481 3.08747,3.65228 7.11627,5.47842 12.0864,5.47841 3.99111,10e-6 7.32334,-1.22369 9.99669,-3.6711 2.67327,-2.44739 4.36763,-6.21262 5.08307,-11.2957 z"
         style="font-variant:normal;font-stretch:normal;font-family:Arial;-inkscape-font-specification:Arial;fill:#ffffff"
         id="path3825"
         inkscape:connector-curvature="0" />
      <path
         d="m 328.03924,954.85056 c -1e-5,-11.1074 3.08748,-19.33443 9.26247,-24.68111 5.15835,-4.44291 11.44629,-6.6644 18.86382,-6.66446 8.24582,6e-5 14.98558,2.70161 20.2193,8.10466 5.23362,5.40316 7.85045,12.86773 7.85051,22.39373 -6e-5,7.71875 -1.15787,13.79018 -3.47343,18.21431 -2.31567,4.42416 -5.68555,7.85993 -10.10965,10.30733 -4.42419,2.4474 -9.25309,3.6711 -14.48673,3.6711 -8.39649,0 -15.18332,-2.69214 -20.3605,-8.07642 -5.1772,-5.38428 -7.7658,-13.14065 -7.76579,-23.26914 z m 10.44852,0 c -10e-6,7.68109 1.67551,13.43248 5.02659,17.25418 3.35103,3.82172 7.56809,5.73257 12.65118,5.73256 5.04537,10e-6 9.24361,-1.92026 12.5947,-5.7608 3.35101,-3.84052 5.02654,-9.69546 5.02659,-17.56482 -5e-5,-7.41747 -1.68499,-13.03707 -5.05483,-16.85883 -3.36992,-3.82166 -7.55874,-5.73251 -12.56646,-5.73256 -5.08309,5e-5 -9.30015,1.90149 -12.65118,5.70432 -3.35108,3.80293 -5.0266,9.54491 -5.02659,17.22595 z"
         style="font-variant:normal;font-stretch:normal;font-family:Arial;-inkscape-font-specification:Arial;fill:#ffffff"
         id="path3827"
         inkscape:connector-curvature="0" />
      <path
         d="m 435.51781,984.84064 v -8.81065 c -4.66893,6.77742 -11.01334,10.16613 -19.03325,10.16613 -3.53934,0 -6.84333,-0.67774 -9.91198,-2.03322 -3.06868,-1.35549 -5.34664,-3.05925 -6.83389,-5.11131 -1.48728,-2.05204 -2.53213,-4.56533 -3.13456,-7.53988 -0.41418,-1.99556 -0.62127,-5.15835 -0.62126,-9.48839 V 924.86047 H 406.149 v 33.26584 c -2e-5,5.309 0.20707,8.88597 0.62126,10.73091 0.64007,2.67333 1.99555,4.77245 4.06645,6.29736 2.07085,1.52492 4.63121,2.28738 7.68108,2.28737 3.0498,10e-6 5.91138,-0.78127 8.58473,-2.34385 2.67327,-1.56256 4.5653,-3.68992 5.67609,-6.38207 1.11069,-2.69213 1.66607,-6.59855 1.66611,-11.71929 v -32.13627 h 10.16613 v 59.98017 z"
         style="font-variant:normal;font-stretch:normal;font-family:Arial;-inkscape-font-specification:Arial;fill:#ffffff"
         id="path3829"
         inkscape:connector-curvature="0" />
      <path
         d="m 482.79031,975.7476 1.46844,8.98008 c -2.8616,0.60244 -5.42196,0.90366 -7.68107,0.90366 -3.68995,0 -6.55153,-0.58362 -8.58473,-1.75084 -2.03324,-1.16722 -3.46403,-2.70155 -4.29237,-4.60299 -0.82836,-1.90144 -1.24254,-5.902 -1.24253,-12.00169 v -34.50836 h -7.45516 v -7.90699 h 7.45516 v -14.85384 l 10.10965,-6.09968 v 20.95352 h 10.22261 v 7.90699 H 472.5677 v 35.07315 c -2e-5,2.89924 0.17883,4.76303 0.53655,5.59137 0.35768,0.82836 0.94129,1.48728 1.75083,1.97675 0.80951,0.48949 1.96731,0.73423 3.47343,0.73422 1.12954,10e-6 2.61681,-0.13178 4.4618,-0.39535 z"
         style="font-variant:normal;font-stretch:normal;font-family:Arial;-inkscape-font-specification:Arial;fill:#ffffff"
         id="path3831"
         inkscape:connector-curvature="0" />
      <path
         d="m 488.60761,966.93695 10.05318,-1.58139 c 0.56477,4.02881 2.13675,7.1163 4.71595,9.26247 2.57916,2.14619 6.18437,3.21928 10.81563,3.21927 4.66886,10e-6 8.13287,-0.95071 10.39205,-2.85216 2.25909,-1.90143 3.38866,-4.13233 3.38871,-6.6927 -5e-5,-2.29678 -0.99783,-4.10409 -2.99336,-5.42194 -1.39318,-0.90363 -4.85719,-2.05203 -10.39205,-3.44519 -7.45518,-1.88259 -12.62296,-3.51105 -15.50334,-4.88539 -2.88042,-1.37427 -5.06425,-3.27572 -6.55151,-5.70432 -1.48727,-2.42854 -2.23091,-5.11127 -2.2309,-8.04819 -10e-6,-2.67327 0.61184,-5.14891 1.83555,-7.42692 1.22369,-2.27791 2.88981,-4.16994 4.99835,-5.67609 1.58138,-1.16717 3.73698,-2.15554 6.46679,-2.96512 2.72977,-0.80947 5.65723,-1.21423 8.7824,-1.21429 4.70651,6e-5 8.83885,0.6778 12.39703,2.03323 3.5581,1.35554 6.18435,3.19109 7.87875,5.50665 1.69431,2.31567 2.86153,5.41257 3.50167,9.29071 l -9.94022,1.35549 c -0.45187,-3.08745 -1.76028,-5.4972 -3.92525,-7.22925 -2.16505,-1.73196 -5.2243,-2.59796 -9.17776,-2.59801 -4.66891,5e-5 -8.00114,0.77192 -9.99669,2.31562 -1.99559,1.54379 -2.99338,3.3511 -2.99336,5.42193 -2e-5,1.31788 0.41416,2.50392 1.24252,3.55815 0.82834,1.09195 2.12734,1.99561 3.89702,2.71096 1.01659,0.37657 4.00995,1.24257 8.98008,2.59802 7.19156,1.9203 12.20873,3.49228 15.05152,4.71595 2.84271,1.22373 5.0736,3.0028 6.6927,5.33722 1.619,2.33447 2.42852,5.23369 2.42858,8.69769 -6e-5,3.38872 -0.98843,6.57975 -2.96512,9.5731 -1.9768,2.99337 -4.82896,5.30898 -8.55649,6.94686 -3.72762,1.63787 -7.94468,2.45681 -12.65119,2.45681 -7.79405,0 -13.7337,-1.61905 -17.81896,-4.85715 -4.08529,-3.23809 -6.69271,-8.03876 -7.82228,-14.40202 z"
         style="font-variant:normal;font-stretch:normal;font-family:Arial;-inkscape-font-specification:Arial;fill:#ffffff"
         id="path3833"
         inkscape:connector-curvature="0" />
      <path
         d="m 583.88683,984.84064 v -82.79748 h 28.52164 c 6.4385,8e-5 11.35213,0.39543 14.74089,1.18605 4.74413,1.092 8.79176,3.06874 12.14287,5.93024 4.36761,3.69 7.63394,8.40595 9.79902,14.14787 2.16494,5.74203 3.24744,12.30294 3.24752,19.68275 -8e-5,6.28798 -0.7343,11.86052 -2.20266,16.71764 -1.46852,4.85717 -3.35113,8.87655 -5.64785,12.05816 -2.29686,3.18163 -4.81015,5.6855 -7.53988,7.51164 -2.72986,1.82614 -6.02443,3.20986 -9.88374,4.15116 -3.85941,0.94131 -8.29297,1.41197 -13.30069,1.41197 z m 10.95683,-9.77078 h 17.67777 c 5.45954,1e-5 9.74249,-0.5083 12.84885,-1.52492 3.10627,-1.0166 5.58191,-2.44739 7.42693,-4.29237 2.59795,-2.59799 4.62176,-6.09024 6.07144,-10.47676 1.44954,-4.38647 2.17435,-9.70485 2.17442,-15.95517 -7e-5,-8.65999 -1.42144,-15.31503 -4.26413,-19.96515 -2.84281,-4.65 -6.29741,-7.76573 -10.3638,-9.34719 -2.93693,-1.1295 -7.6623,-1.69429 -14.17611,-1.69436 h -17.39537 z"
         style="font-variant:normal;font-stretch:normal;font-family:Arial;-inkscape-font-specification:Arial;fill:#ffffff"
         id="path3835"
         inkscape:connector-curvature="0" />
      <path
         d="m 707.23586,965.52499 10.505,1.29901 c -1.65676,6.13734 -4.72543,10.90035 -9.206,14.28906 -4.48067,3.38871 -10.20382,5.08306 -17.16946,5.08306 -8.77302,0 -15.72928,-2.70155 -20.86881,-8.10466 -5.13955,-5.4031 -7.70932,-12.98062 -7.70931,-22.7326 -10e-6,-10.09078 2.598,-17.92246 7.79403,-23.49505 5.19601,-5.57249 11.93577,-8.35876 20.2193,-8.35882 8.01991,6e-5 14.57141,2.72985 19.65452,8.18938 5.08301,5.45964 7.62454,13.14071 7.6246,23.04323 -6e-5,0.60247 -0.0189,1.50612 -0.0565,2.71097 h -44.73097 c 0.37651,6.58918 2.2403,11.63458 5.59137,15.13623 3.35103,3.50168 7.53044,5.25251 12.53823,5.2525 3.72754,10e-6 6.90916,-0.97895 9.54486,-2.93688 2.63562,-1.95791 4.72532,-5.08305 6.26912,-9.37543 z m -33.3788,-16.43524 h 33.49175 c -0.45187,-5.04537 -1.73205,-8.82943 -3.84054,-11.35218 -3.23814,-3.91579 -7.43637,-5.87371 -12.5947,-5.87376 -4.66892,5e-5 -8.59417,1.56262 -11.77577,4.68771 -3.18164,3.12519 -4.94188,7.3046 -5.28074,12.53823 z"
         style="font-variant:normal;font-stretch:normal;font-family:Arial;-inkscape-font-specification:Arial;fill:#ffffff"
         id="path3837"
         inkscape:connector-curvature="0" />
      <path
         d="m 754.8472,984.84064 31.79739,-82.79748 h 11.80401 l 33.88709,82.79748 h -12.48174 l -9.65783,-25.07646 H 775.5748 l -9.09303,25.07646 z m 23.8904,-34.00006 h 28.06981 l -8.64121,-22.93027 c -2.6357,-6.96561 -4.59362,-12.68876 -5.87376,-17.16946 -1.0543,5.30905 -2.54157,10.58037 -4.4618,15.81398 z"
         style="font-variant:normal;font-stretch:normal;font-family:Arial;-inkscape-font-specification:Arial;fill:#ffffff"
         id="path3839"
         inkscape:connector-curvature="0" />
      <path
         d="m 839.79091,984.84064 v -59.98017 h 9.14951 v 9.09304 c 2.33443,-4.25466 4.49002,-7.05975 6.46679,-8.41529 1.97672,-1.35543 4.15114,-2.03317 6.52327,-2.03323 3.42633,6e-5 6.90916,1.09198 10.44852,3.27575 l -3.50167,9.43191 c -2.48509,-1.46839 -4.97014,-2.20261 -7.45516,-2.20266 -2.22151,5e-5 -4.21709,0.66838 -5.98672,2.00499 -1.76968,1.3367 -3.03103,3.19108 -3.78406,5.56313 -1.12959,3.61466 -1.69437,7.56815 -1.69435,11.86048 v 31.40205 z"
         style="font-variant:normal;font-stretch:normal;font-family:Arial;-inkscape-font-specification:Arial;fill:#ffffff"
         id="path3841"
         inkscape:connector-curvature="0" />
      <path
         d="m 876.67136,989.81074 9.88374,1.46845 c 0.41416,3.04983 1.56255,5.27131 3.44518,6.66446 2.52269,1.8826 5.96787,2.82395 10.33557,2.82395 4.70651,0 8.33995,-0.94135 10.90035,-2.82395 2.56032,-1.88263 4.29232,-4.51829 5.19602,-7.90699 0.52709,-2.07088 0.77183,-6.41972 0.73422,-13.04653 -4.44302,5.23367 -9.9779,7.85051 -16.60468,7.85051 -8.24588,0 -14.62794,-2.97453 -19.14621,-8.92361 -4.51828,-5.94905 -6.77742,-13.08416 -6.77742,-21.40535 0,-5.72311 1.03544,-11.00385 3.10632,-15.84221 2.07087,-4.83828 5.07364,-8.57527 9.00832,-11.21099 3.93465,-2.6356 8.55647,-3.95343 13.86547,-3.95349 7.0786,6e-5 12.91471,2.86164 17.50834,8.58473 v -7.22925 h 9.37543 v 51.84726 c -6e-5,9.33778 -0.95078,15.95517 -2.85217,19.8522 -1.90149,3.89697 -4.91368,6.97507 -9.03656,9.23427 -4.12297,2.2591 -9.19661,3.3886 -15.22095,3.3887 -7.15397,-10e-5 -12.93359,-1.6097 -17.3389,-4.8289 -4.40533,-3.2193 -6.53269,-8.06707 -6.38207,-14.54326 z m 8.4153,-36.03328 c -2e-5,7.86936 1.56255,13.61134 4.68771,17.22595 3.12512,3.61463 7.04096,5.42194 11.74753,5.42193 4.66885,10e-6 8.58469,-1.79789 11.74753,-5.3937 3.16275,-3.59578 4.74414,-9.23421 4.74419,-16.9153 -5e-5,-7.34217 -1.62851,-12.87706 -4.88539,-16.60468 -3.25697,-3.72753 -7.18222,-5.59132 -11.77577,-5.59137 -4.5183,5e-5 -8.35884,1.8356 -11.52161,5.50665 -3.16281,3.67115 -4.74421,9.12131 -4.74419,16.35052 z"
         style="font-variant:normal;font-stretch:normal;font-family:Arial;-inkscape-font-specification:Arial;fill:#ffffff"
         id="path3843"
         inkscape:connector-curvature="0" />
      <path
         d="m 983.98045,965.52499 10.505,1.29901 c -1.65676,6.13734 -4.72542,10.90035 -9.20599,14.28906 -4.48067,3.38871 -10.20382,5.08306 -17.16946,5.08306 -8.77302,0 -15.72928,-2.70155 -20.86881,-8.10466 -5.13955,-5.4031 -7.70932,-12.98062 -7.70931,-22.7326 -10e-6,-10.09078 2.598,-17.92246 7.79403,-23.49505 5.196,-5.57249 11.93576,-8.35876 20.2193,-8.35882 8.01991,6e-5 14.57141,2.72985 19.65452,8.18938 5.08301,5.45964 7.62454,13.14071 7.6246,23.04323 -6e-5,0.60247 -0.0189,1.50612 -0.0565,2.71097 h -44.73097 c 0.37651,6.58918 2.24029,11.63458 5.59137,15.13623 3.35103,3.50168 7.53044,5.25251 12.53823,5.2525 3.72754,10e-6 6.90916,-0.97895 9.54486,-2.93688 2.63562,-1.95791 4.72532,-5.08305 6.26911,-9.37543 z m -33.37879,-16.43524 h 33.49175 c -0.45188,-5.04537 -1.73205,-8.82943 -3.84054,-11.35218 -3.23814,-3.91579 -7.43637,-5.87371 -12.5947,-5.87376 -4.66892,5e-5 -8.59417,1.56262 -11.77577,4.68771 -3.18164,3.12519 -4.94188,7.3046 -5.28074,12.53823 z"
         style="font-variant:normal;font-stretch:normal;font-family:Arial;-inkscape-font-specification:Arial;fill:#ffffff"
         id="path3845"
         inkscape:connector-curvature="0" />
      <path
         d="m 1007.3061,984.84064 v -59.98017 h 9.1495 v 8.52826 c 4.4053,-6.5891 10.7685,-9.88368 19.0897,-9.88374 3.6146,6e-5 6.9374,0.64956 9.9685,1.94851 3.031,1.29906 5.2995,3.00283 6.8056,5.1113 1.5061,2.10858 2.5604,4.61246 3.1628,7.51164 0.3765,1.88266 0.5648,5.17724 0.5648,9.88374 v 36.88046 h -10.1661 v -36.48511 c 0,-4.14172 -0.3954,-7.23862 -1.1861,-9.29071 -0.7907,-2.05201 -2.1932,-3.68988 -4.2076,-4.91363 -2.0144,-1.22365 -4.3771,-1.8355 -7.088,-1.83555 -4.3301,5e-5 -8.0671,1.37436 -11.211,4.12293 -3.144,2.74866 -4.716,7.9635 -4.716,15.64454 v 32.75753 z"
         style="font-variant:normal;font-stretch:normal;font-family:Arial;-inkscape-font-specification:Arial;fill:#ffffff"
         id="path3847"
         inkscape:connector-curvature="0" />
      <path
         d="m 1093.8876,975.7476 1.4685,8.98008 c -2.8616,0.60244 -5.422,0.90366 -7.6811,0.90366 -3.69,0 -6.5515,-0.58362 -8.5847,-1.75084 -2.0333,-1.16722 -3.4641,-2.70155 -4.2924,-4.60299 -0.8284,-1.90144 -1.2425,-5.902 -1.2425,-12.00169 v -34.50836 h -7.4552 v -7.90699 h 7.4552 v -14.85384 l 10.1096,-6.09968 v 20.95352 h 10.2226 v 7.90699 h -10.2226 v 35.07315 c 0,2.89924 0.1789,4.76303 0.5366,5.59137 0.3576,0.82836 0.9413,1.48728 1.7508,1.97675 0.8095,0.48949 1.9673,0.73423 3.4734,0.73422 1.1296,10e-6 2.6168,-0.13178 4.4618,-0.39535 z"
         style="font-variant:normal;font-stretch:normal;font-family:Arial;-inkscape-font-specification:Arial;fill:#ffffff"
         id="path3849"
         inkscape:connector-curvature="0" />
      <path
         d="m 1103.8278,913.73421 v -11.69105 h 10.1662 v 11.69105 z m 0,71.10643 v -59.98017 h 10.1662 v 59.98017 z"
         style="font-variant:normal;font-stretch:normal;font-family:Arial;-inkscape-font-specification:Arial;fill:#ffffff"
         id="path3851"
         inkscape:connector-curvature="0" />
      <path
         d="m 1129.5256,984.84064 v -59.98017 h 9.1495 v 8.52826 c 4.4053,-6.5891 10.7685,-9.88368 19.0897,-9.88374 3.6146,6e-5 6.9374,0.64956 9.9685,1.94851 3.0309,1.29906 5.2995,3.00283 6.8056,5.1113 1.5061,2.10858 2.5603,4.61246 3.1628,7.51164 0.3765,1.88266 0.5648,5.17724 0.5648,9.88374 v 36.88046 h -10.1661 v -36.48511 c -10e-5,-4.14172 -0.3954,-7.23862 -1.1861,-9.29071 -0.7907,-2.05201 -2.1933,-3.68988 -4.2076,-4.91363 -2.0145,-1.22365 -4.3771,-1.8355 -7.0881,-1.83555 -4.33,5e-5 -8.067,1.37436 -11.2109,4.12293 -3.144,2.74866 -4.716,7.9635 -4.716,15.64454 v 32.75753 z"
         style="font-variant:normal;font-stretch:normal;font-family:Arial;-inkscape-font-specification:Arial;fill:#ffffff"
         id="path3853"
         inkscape:connector-curvature="0" />
      <path
         d="m 1233.0507,977.44195 c -3.7653,3.20046 -7.3893,5.45959 -10.8721,6.77742 -3.4829,1.31783 -7.2199,1.97675 -11.211,1.97675 -6.5892,0 -11.6534,-1.60964 -15.1927,-4.82891 -3.5394,-3.21927 -5.309,-7.33278 -5.309,-12.34055 0,-2.93686 0.6683,-5.61959 2.005,-8.04819 1.3366,-2.42855 3.0874,-4.37705 5.2525,-5.84552 2.165,-1.46841 4.6029,-2.57915 7.3139,-3.33223 1.9956,-0.5271 5.0078,-1.03541 9.0366,-1.52492 8.2082,-0.97893 14.2514,-2.14615 18.1296,-3.50167 0.038,-1.3931 0.056,-2.27793 0.056,-2.65449 -10e-5,-4.14171 -0.9602,-7.05976 -2.8804,-8.75417 -2.5981,-2.29674 -6.4574,-3.44513 -11.5781,-3.44518 -4.7819,5e-5 -8.3118,0.83781 -10.5897,2.51329 -2.278,1.67558 -3.963,4.64069 -5.0549,8.89536 l -9.9402,-1.35548 c 0.9037,-4.25467 2.3909,-7.69044 4.4618,-10.30733 2.0709,-2.61678 5.0642,-4.63118 8.9801,-6.0432 3.9158,-1.4119 8.4529,-2.11788 13.6113,-2.11794 5.1207,6e-5 9.2813,0.6025 12.4818,1.80731 3.2004,1.20493 5.5536,2.72044 7.0598,4.54652 1.506,1.82619 2.5603,4.13239 3.1628,6.91862 0.3388,1.73205 0.5082,4.85719 0.5083,9.37543 v 13.55484 c -10e-5,9.45075 0.2164,15.42805 0.6495,17.93192 0.4329,2.50388 1.2895,4.90422 2.5697,7.20101 h -10.6179 c -1.0543,-2.10853 -1.7321,-4.57476 -2.0332,-7.39869 z m -0.8472,-22.70435 c -3.69,1.50612 -9.2249,2.7863 -16.6047,3.84054 -4.1794,0.60246 -7.1351,1.2802 -8.8671,2.03322 -1.732,0.75307 -3.0687,1.8544 -4.01,3.30399 -0.9413,1.44964 -1.412,3.05927 -1.412,4.82892 0,2.71098 1.0261,4.97011 3.0781,6.77742 2.0521,1.80731 5.0548,2.71097 9.0083,2.71096 3.9159,10e-6 7.3987,-0.85658 10.4486,-2.56977 3.0498,-1.71317 5.2901,-4.05702 6.7209,-7.03157 1.0919,-2.29678 1.6378,-5.68548 1.6379,-10.16613 z"
         style="font-variant:normal;font-stretch:normal;font-family:Arial;-inkscape-font-specification:Arial;fill:#ffffff"
         id="path3855"
         inkscape:connector-curvature="0" />
    </g>
    <g
       style="font-style:normal;font-weight:normal;font-size:39.58895874px;line-height:125%;font-family:Sans;letter-spacing:0px;word-spacing:0px;fill:#ffffff;fill-opacity:1;stroke:none"
       id="text4342"
       transform="matrix(0.29543452,0,0,0.29543452,-67.949189,-12.945735)">
      <path
         d="m 969.7578,1032.713 10.8831,-28.3386 h 4.04009 l 11.59832,28.3386 h -4.27205 l -3.30552,-8.5827 h -11.84963 l -3.11221,8.5827 z m 8.17683,-11.637 h 9.60728 l -2.95758,-7.8482 c -0.9021,-2.3841 -1.57223,-4.3429 -2.01037,-5.8765 -0.36085,1.8171 -0.86989,3.6213 -1.52712,5.4126 z"
         style="font-variant:normal;font-stretch:normal;font-family:Arial;-inkscape-font-specification:Arial;fill:#ffffff"
         id="path3792"
         inkscape:connector-curvature="0" />
      <path
         d="m 997.47781,1026.5852 3.44079,-0.5412 c 0.1933,1.3789 0.7314,2.4356 1.6141,3.1702 0.8828,0.7345 2.1167,1.1018 3.7018,1.1018 1.598,0 2.7836,-0.3254 3.5569,-0.9762 0.7732,-0.6508 1.1598,-1.4143 1.1598,-2.2906 0,-0.7861 -0.3415,-1.4047 -1.0245,-1.8558 -0.4769,-0.3093 -1.6625,-0.7023 -3.5568,-1.1791 -2.5517,-0.6444 -4.3204,-1.2017 -5.3063,-1.6721 -0.9858,-0.4704 -1.73328,-1.1212 -2.24232,-1.9524 -0.50904,-0.8312 -0.76356,-1.7494 -0.76356,-2.7546 0,-0.915 0.20942,-1.7623 0.62825,-2.542 0.41882,-0.7796 0.98907,-1.4272 1.71073,-1.9427 0.5413,-0.3995 1.2791,-0.7378 2.2134,-1.0149 0.9343,-0.277 1.9362,-0.4155 3.0059,-0.4156 1.6108,10e-5 3.0252,0.232 4.243,0.6959 1.2178,0.464 2.1167,1.0922 2.6966,1.8848 0.5799,0.7925 0.9794,1.8525 1.1985,3.1798 l -3.4021,0.464 c -0.1547,-1.0567 -0.6025,-1.8815 -1.3435,-2.4743 -0.741,-0.5928 -1.7881,-0.8892 -3.1412,-0.8892 -1.598,0 -2.7385,0.2642 -3.4215,0.7925 -0.6831,0.5284 -1.0246,1.147 -1.0246,1.8557 0,0.4511 0.1418,0.857 0.4253,1.2179 0.2835,0.3737 0.7281,0.683 1.3338,0.9278 0.348,0.1289 1.3725,0.4253 3.0736,0.8892 2.4614,0.6573 4.1786,1.1953 5.1516,1.6141 0.9729,0.4189 1.7365,1.0278 2.2906,1.8268 0.5542,0.799 0.8312,1.7913 0.8312,2.9769 0,1.1598 -0.3383,2.252 -1.0148,3.2765 -0.6766,1.0245 -1.6528,1.8171 -2.9286,2.3777 -1.2758,0.5606 -2.7192,0.8408 -4.33,0.8408 -2.6676,0 -4.7006,-0.5541 -6.0988,-1.6624 -1.39826,-1.1083 -2.29068,-2.7514 -2.67729,-4.9293 z"
         style="font-variant:normal;font-stretch:normal;font-family:Arial;-inkscape-font-specification:Arial;fill:#ffffff"
         id="path3794"
         inkscape:connector-curvature="0" />
      <path
         d="m 1017.3689,1022.4485 c 0,-3.8017 1.0568,-6.6175 3.1702,-8.4475 1.7656,-1.5206 3.9177,-2.2809 6.4565,-2.281 2.8222,10e-5 5.129,0.9247 6.9203,2.774 1.7913,1.8493 2.6869,4.4041 2.6869,7.6645 0,2.6419 -0.3963,4.7199 -1.1888,6.2341 -0.7926,1.5143 -1.946,2.6902 -3.4602,3.5279 -1.5142,0.8376 -3.167,1.2564 -4.9582,1.2564 -2.8739,0 -5.1967,-0.9214 -6.9687,-2.7642 -1.772,-1.8429 -2.658,-4.4976 -2.658,-7.9642 z m 3.5762,0 c 0,2.629 0.5735,4.5974 1.7204,5.9055 1.1469,1.308 2.5903,1.962 4.3301,1.962 1.7268,0 3.1637,-0.6572 4.3107,-1.9717 1.1469,-1.3145 1.7204,-3.3184 1.7204,-6.0118 0,-2.5387 -0.5767,-4.4621 -1.7301,-5.7702 -1.1534,-1.308 -2.5871,-1.962 -4.301,-1.962 -1.7398,0 -3.1832,0.6508 -4.3301,1.9524 -1.1469,1.3016 -1.7204,3.2669 -1.7204,5.8958 z"
         style="font-variant:normal;font-stretch:normal;font-family:Arial;-inkscape-font-specification:Arial;fill:#ffffff"
         id="path3796"
         inkscape:connector-curvature="0" />
      <path
         d="m 1054.097,1025.1934 3.4215,0.4446 c -0.3738,2.3584 -1.3306,4.2044 -2.8706,5.5382 -1.54,1.3338 -3.4312,2.0007 -5.6735,2.0007 -2.8094,0 -5.0678,-0.9182 -6.7754,-2.7546 -1.7075,-1.8364 -2.5613,-4.4685 -2.5613,-7.8965 0,-2.2165 0.3673,-4.156 1.1019,-5.8185 0.7345,-1.6624 1.8525,-2.9092 3.3538,-3.7404 1.5014,-0.8312 3.1348,-1.2468 4.9003,-1.2469 2.2295,10e-5 4.053,0.5639 5.4706,1.6915 1.4175,1.1276 2.326,2.7288 2.7256,4.8036 l -3.3829,0.5219 c -0.3222,-1.3789 -0.8924,-2.4163 -1.7107,-3.1122 -0.8184,-0.6959 -1.8075,-1.0438 -2.9673,-1.0438 -1.7526,0 -3.1766,0.6282 -4.272,1.8847 -1.0954,1.2565 -1.6431,3.2443 -1.6431,5.9635 0,2.7578 0.5283,4.7617 1.5851,6.0118 1.0567,1.25 2.4356,1.875 4.1367,1.875 1.366,0 2.5065,-0.4188 3.4215,-1.2565 0.915,-0.8376 1.4949,-2.1263 1.7398,-3.8661 z"
         style="font-variant:normal;font-stretch:normal;font-family:Arial;-inkscape-font-specification:Arial;fill:#ffffff"
         id="path3798"
         inkscape:connector-curvature="0" />
      <path
         d="m 1060.5147,1008.3759 v -4.0015 h 3.4795 v 4.0015 z m 0,24.3371 v -20.529 h 3.4795 v 20.529 z"
         style="font-variant:normal;font-stretch:normal;font-family:Arial;-inkscape-font-specification:Arial;fill:#ffffff"
         id="path3800"
         inkscape:connector-curvature="0" />
      <path
         d="m 1082.7062,1030.1807 c -1.2887,1.0954 -2.5291,1.8686 -3.7211,2.3197 -1.1921,0.451 -2.4711,0.6765 -3.8372,0.6765 -2.2552,0 -3.9885,-0.5509 -5.1999,-1.6527 -1.2114,-1.1019 -1.817,-2.5098 -1.817,-4.2237 0,-1.0052 0.2287,-1.9234 0.6862,-2.7546 0.4575,-0.8312 1.0567,-1.4982 1.7977,-2.0008 0.741,-0.5025 1.5755,-0.8827 2.5033,-1.1405 0.683,-0.1804 1.714,-0.3543 3.0929,-0.5219 2.8094,-0.335 4.8777,-0.7345 6.2051,-1.1985 0.013,-0.4768 0.019,-0.7796 0.019,-0.9085 -10e-5,-1.4176 -0.3287,-2.4163 -0.9859,-2.9962 -0.8892,-0.7861 -2.2101,-1.1792 -3.9628,-1.1792 -1.6366,0 -2.8448,0.2867 -3.6244,0.8602 -0.7797,0.5735 -1.3564,1.5883 -1.7301,3.0446 l -3.4022,-0.464 c 0.3093,-1.4562 0.8183,-2.6321 1.5271,-3.5278 0.7088,-0.8956 1.7333,-1.5851 3.0736,-2.0684 1.3402,-0.4832 2.8931,-0.7248 4.6586,-0.7249 1.7527,10e-5 3.1767,0.2063 4.2721,0.6186 1.0954,0.4124 1.9008,0.9311 2.4163,1.5561 0.5155,0.6251 0.8763,1.4144 1.0825,2.368 0.116,0.5928 0.174,1.6625 0.174,3.2089 v 4.6393 c 0,3.2347 0.074,5.2805 0.2223,6.1375 0.1482,0.857 0.4413,1.6785 0.8795,2.4646 h -3.6341 c -0.3609,-0.7217 -0.5928,-1.5658 -0.6959,-2.5323 z m -0.29,-7.7709 c -1.2629,0.5155 -3.1573,0.9537 -5.6832,1.3145 -1.4304,0.2062 -2.4421,0.4382 -3.0348,0.6959 -0.5929,0.2578 -1.0503,0.6347 -1.3725,1.1308 -0.3222,0.4962 -0.4833,1.0471 -0.4833,1.6528 0,0.9279 0.3512,1.7011 1.0535,2.3197 0.7024,0.6186 1.7301,0.9278 3.0833,0.9278 1.3402,0 2.5322,-0.2931 3.5761,-0.8795 1.0438,-0.5864 1.8106,-1.3886 2.3003,-2.4067 0.3737,-0.7861 0.5606,-1.9459 0.5606,-3.4795 z"
         style="font-variant:normal;font-stretch:normal;font-family:Arial;-inkscape-font-specification:Arial;fill:#ffffff"
         id="path3802"
         inkscape:connector-curvature="0" />
      <path
         d="m 1104.743,1025.1934 3.4215,0.4446 c -0.3737,2.3584 -1.3306,4.2044 -2.8706,5.5382 -1.54,1.3338 -3.4312,2.0007 -5.6735,2.0007 -2.8094,0 -5.0678,-0.9182 -6.7753,-2.7546 -1.7076,-1.8364 -2.5613,-4.4685 -2.5613,-7.8965 0,-2.2165 0.3672,-4.156 1.1018,-5.8185 0.7346,-1.6624 1.8525,-2.9092 3.3539,-3.7404 1.5013,-0.8312 3.1347,-1.2468 4.9002,-1.2469 2.2295,10e-5 4.053,0.5639 5.4706,1.6915 1.4175,1.1276 2.3261,2.7288 2.7256,4.8036 l -3.3828,0.5219 c -0.3222,-1.3789 -0.8925,-2.4163 -1.7108,-3.1122 -0.8183,-0.6959 -1.8074,-1.0438 -2.9672,-1.0438 -1.7527,0 -3.1767,0.6282 -4.2721,1.8847 -1.0954,1.2565 -1.6431,3.2443 -1.6431,5.9635 0,2.7578 0.5284,4.7617 1.5851,6.0118 1.0567,1.25 2.4357,1.875 4.1368,1.875 1.366,0 2.5065,-0.4188 3.4215,-1.2565 0.9149,-0.8376 1.4948,-2.1263 1.7397,-3.8661 z"
         style="font-variant:normal;font-stretch:normal;font-family:Arial;-inkscape-font-specification:Arial;fill:#ffffff"
         id="path3804"
         inkscape:connector-curvature="0" />
      <path
         d="m 1111.1608,1008.3759 v -4.0015 h 3.4795 v 4.0015 z m 0,24.3371 v -20.529 h 3.4795 v 20.529 z"
         style="font-variant:normal;font-stretch:normal;font-family:Arial;-inkscape-font-specification:Arial;fill:#ffffff"
         id="path3806"
         inkscape:connector-curvature="0" />
      <path
         d="m 1118.661,1022.4485 c 0,-3.8017 1.0567,-6.6175 3.1702,-8.4475 1.7655,-1.5206 3.9177,-2.2809 6.4564,-2.281 2.8223,10e-5 5.129,0.9247 6.9204,2.774 1.7912,1.8493 2.6869,4.4041 2.6869,7.6645 0,2.6419 -0.3963,4.7199 -1.1888,6.2341 -0.7926,1.5143 -1.946,2.6902 -3.4602,3.5279 -1.5142,0.8376 -3.167,1.2564 -4.9583,1.2564 -2.8738,0 -5.1967,-0.9214 -6.9686,-2.7642 -1.772,-1.8429 -2.658,-4.4976 -2.658,-7.9642 z m 3.5762,0 c 0,2.629 0.5734,4.5974 1.7204,5.9055 1.1469,1.308 2.5903,1.962 4.33,1.962 1.7269,0 3.1638,-0.6572 4.3107,-1.9717 1.147,-1.3145 1.7204,-3.3184 1.7204,-6.0118 0,-2.5387 -0.5767,-4.4621 -1.73,-5.7702 -1.1534,-1.308 -2.5871,-1.962 -4.3011,-1.962 -1.7397,0 -3.1831,0.6508 -4.33,1.9524 -1.147,1.3016 -1.7204,3.2669 -1.7204,5.8958 z m 4.1174,-12.8162 2.5709,-5.4125 h 4.562 l -4.2527,5.4125 z"
         style="font-variant:normal;font-stretch:normal;font-family:Arial;-inkscape-font-specification:Arial;fill:#ffffff"
         id="path3808"
         inkscape:connector-curvature="0" />
      <path
         d="m 1141.993,1032.713 v -20.529 h 3.1315 v 2.9189 c 1.5078,-2.2552 3.6857,-3.3828 6.5337,-3.3829 1.2372,10e-5 2.3745,0.2224 3.4119,0.6669 1.0374,0.4447 1.8138,1.0278 2.3293,1.7495 0.5155,0.7216 0.8763,1.5786 1.0825,2.5709 0.1289,0.6444 0.1933,1.772 0.1933,3.3829 v 12.6228 h -3.4795 v -12.4875 c 0,-1.4176 -0.1353,-2.4775 -0.4059,-3.1799 -0.2707,-0.7023 -0.7507,-1.2629 -1.4401,-1.6818 -0.6895,-0.4188 -1.4982,-0.6282 -2.426,-0.6282 -1.482,0 -2.7611,0.4704 -3.8371,1.4111 -1.0761,0.9408 -1.6141,2.7257 -1.6141,5.3546 v 11.2117 z"
         style="font-variant:normal;font-stretch:normal;font-family:Arial;-inkscape-font-specification:Arial;fill:#ffffff"
         id="path3810"
         inkscape:connector-curvature="0" />
      <path
         d="m 1195.6739,1022.7771 3.7501,0.9472 c -0.7861,3.08 -2.2005,5.4287 -4.243,7.046 -2.0426,1.6173 -4.5395,2.426 -7.4906,2.426 -3.0543,0 -5.5382,-0.6218 -7.4519,-1.8654 -1.9138,-1.2436 -3.37,-3.0446 -4.3687,-5.4029 -0.9988,-2.3583 -1.4982,-4.8906 -1.4982,-7.5969 0,-2.9511 0.5638,-5.5253 1.6915,-7.7226 1.1276,-2.1972 2.732,-3.8661 4.8133,-5.0066 2.0812,-1.1405 4.3719,-1.7107 6.872,-1.7107 2.8351,0 5.2192,0.7217 7.1523,2.165 1.933,1.4434 3.2797,3.4731 4.0401,6.0891 l -3.6922,0.8699 c -0.6572,-2.0619 -1.6109,-3.5633 -2.8609,-4.504 -1.2501,-0.9408 -2.8223,-1.4111 -4.7167,-1.4112 -2.1779,10e-5 -3.9982,0.522 -5.4608,1.5658 -1.4627,1.0439 -2.4905,2.4453 -3.0833,4.2044 -0.5928,1.7591 -0.8892,3.573 -0.8892,5.4416 0,2.4098 0.3512,4.5136 1.0536,6.3114 0.7023,1.7977 1.7945,3.1412 3.2765,4.0304 1.482,0.8892 3.0864,1.3338 4.8133,1.3338 2.1006,0 3.879,-0.6057 5.3352,-1.8171 1.4562,-1.2113 2.4421,-3.0091 2.9576,-5.3932 z"
         style="font-variant:normal;font-stretch:normal;font-family:Arial;-inkscape-font-specification:Arial;fill:#ffffff"
         id="path3812"
         inkscape:connector-curvature="0" />
      <path
         d="m 1203.6381,1008.3759 v -4.0015 h 3.4795 v 4.0015 z m 0,24.3371 v -20.529 h 3.4795 v 20.529 z"
         style="font-variant:normal;font-stretch:normal;font-family:Arial;-inkscape-font-specification:Arial;fill:#ffffff"
         id="path3814"
         inkscape:connector-curvature="0" />
      <path
         d="m 1218.136,1032.713 -7.8096,-20.529 h 3.6729 l 4.4073,12.2942 c 0.4768,1.3274 0.915,2.7063 1.3145,4.1367 0.3093,-1.0825 0.741,-2.3841 1.2951,-3.9047 l 4.562,-12.5262 h 3.5762 l -7.7709,20.529 z"
         style="font-variant:normal;font-stretch:normal;font-family:Arial;-inkscape-font-specification:Arial;fill:#ffffff"
         id="path3816"
         inkscape:connector-curvature="0" />
      <path
         d="m 1232.2473,1008.3759 v -4.0015 h 3.4795 v 4.0015 z m 0,24.3371 v -20.529 h 3.4795 v 20.529 z"
         style="font-variant:normal;font-stretch:normal;font-family:Arial;-inkscape-font-specification:Arial;fill:#ffffff"
         id="path3818"
         inkscape:connector-curvature="0" />
      <path
         d="m 1240.9654,1032.713 v -28.3386 h 3.4795 v 28.3386 z"
         style="font-variant:normal;font-stretch:normal;font-family:Arial;-inkscape-font-specification:Arial;fill:#ffffff"
         id="path3820"
         inkscape:connector-curvature="0" />
    </g>
    <path
       inkscape:connector-curvature="0"
       style="fill:#ffffff;fill-opacity:1;fill-rule:evenodd;stroke-width:0.2417921"
       d="m 25.228499,267.77318 c -1.193118,0 -2.290948,0.17337 -3.292838,0.52012 -1.018177,0.35226 -1.920838,0.87834 -2.707572,1.57768 -0.796908,0.7084 -1.397639,1.52491 -1.801722,2.44935 -0.401878,0.91929 -0.602868,1.93004 -0.602868,3.03153 0,0.67162 0.0747,1.30951 0.22418,1.91352 -0.15465,-0.13142 -0.35483,-0.21084 -0.57353,-0.21084 h -3.5851 l 4.895902,-7.39014 c 0.113603,-0.14904 0.181199,-0.33506 0.181199,-0.53685 0,-0.48933 -0.396694,-0.88619 -0.886041,-0.88619 H 4.631349 c -0.48933,0 -0.88619,0.39686 -0.88619,0.88619 v 3.66301 c 0,0.48935 0.39686,0.88605 0.88619,0.88605 h 3.44 l -4.93317,7.37664 c -0.12008,0.15119 -0.19176,0.34251 -0.19176,0.55049 0,0.48933 0.39686,0.88619 0.88619,0.88619 h 12.64154 c 0.48933,0 0.886047,-0.39686 0.886047,-0.88619 v -3.3769 c 0.02145,0.0525 0.04349,0.10461 0.06617,0.15655 0.404083,0.92443 1.004814,1.74109 1.801722,2.44949 0.786734,0.69936 1.689395,1.22529 2.707572,1.57753 1.00189,0.34675 2.09972,0.52027 3.292838,0.52027 1.193215,0 2.289999,-0.17352 3.289317,-0.52027 1.012683,-0.35127 1.911903,-0.87835 2.697301,-1.58105 0.793292,-0.70983 1.390414,-1.52647 1.791304,-2.44949 0.16527,-0.38051 0.296263,-0.77633 0.39321,-1.18741 v 4.41128 c 0,0.48934 0.396842,0.88619 0.88619,0.88619 h 4.40659 c 0.489349,0 0.88619,-0.39686 0.88619,-0.88619 v -6.69248 c 0,-0.31723 0.03553,-0.58663 0.106519,-0.80755 0.06167,-0.19222 0.152241,-0.3548 0.270991,-0.48711 0.22775,-0.25361 0.577727,-0.38045 1.049782,-0.38045 0.26071,0 0.468043,0.032 0.621361,0.096 0.103852,0.0433 0.182433,0.10375 0.235338,0.18076 0.0802,0.1167 0.146665,0.30675 0.198952,0.56956 0.06416,0.32292 0.09625,0.7279 0.09625,1.21441 v 6.3069 c 0,0.48934 0.396859,0.88619 0.886188,0.88619 h 4.40659 c 0.489328,0 0.88619,-0.39686 0.88619,-0.88619 v -4.33572 c 0.301041,1.32127 0.931495,2.47271 1.891661,3.45438 0.699611,0.7153 1.493408,1.25396 2.380532,1.61568 0.878539,0.35818 1.838736,0.53743 2.879969,0.53743 0.434296,0 0.854701,-0.0437 1.260911,-0.13087 0.376442,-0.0808 0.740542,-0.20173 1.091451,-0.3624 0.02728,-0.01 0.05436,-0.0212 0.08114,-0.0339 l -1.5e-4,-5.7e-4 c 0.172001,-0.0822 0.340003,-0.17449 0.504129,-0.27686 0.156412,0.2515 0.4351,0.41889 0.752969,0.41889 h 4.40659 c 0.48935,0 0.886188,-0.39686 0.886188,-0.88619 v -12.47633 c 0,-0.48933 -0.396838,-0.88604 -0.886188,-0.88604 h -4.40659 c -0.303324,0 -0.571183,0.15246 -0.730959,0.38499 -0.222586,-0.13285 -0.448851,-0.24727 -0.678727,-0.34332 -0.360136,-0.15055 -0.753122,-0.26437 -1.17831,-0.34113 -0.419499,-0.0757 -0.851422,-0.11371 -1.295391,-0.11371 -1.007907,0 -1.941554,0.18382 -2.800593,0.55123 -0.859754,0.36776 -1.63272,0.91547 -2.318615,1.64326 -0.682435,0.72409 -1.194676,1.53382 -1.536454,2.42866 -0.124956,0.32725 -0.22702,0.66487 -0.306058,1.01296 -0.01755,-0.76459 -0.13275,-1.46141 -0.345525,-2.09032 -0.238988,-0.706 -0.603252,-1.32071 -1.092331,-1.84354 -0.497125,-0.53144 -1.103861,-0.92796 -1.819622,-1.18902 -0.686418,-0.25034 -1.465138,-0.3756 -2.335784,-0.3756 -0.417198,0 -0.813353,0.0265 -1.188284,0.0792 -0.388494,0.0547 -0.740247,0.13644 -1.054479,0.24472 -0.341602,0.11779 -0.672324,0.28008 -0.991973,0.48682 -0.135927,-0.31493 -0.449117,-0.53523 -0.813855,-0.53523 h -4.40659 c -0.489349,0 -0.886191,0.39671 -0.886191,0.88604 v 4.38532 c -0.09757,-0.41322 -0.229708,-0.81073 -0.396583,-1.1924 -0.404084,-0.92444 -1.004815,-1.74103 -1.801724,-2.44934 -0.787894,-0.70041 -1.687171,-1.22641 -2.697301,-1.57768 -0.996821,-0.34675 -2.08879,-0.52013 -3.275525,-0.52013 z m -0.266737,0.52849 c 2.184891,0 3.979771,0.62423 5.384332,1.87273 1.404637,1.2485 2.1069,2.85514 2.1069,4.81975 0,1.96461 -0.697678,3.57116 -2.093108,4.81976 -1.39543,1.24851 -3.194876,1.87288 -5.398124,1.87288 -2.203346,0 -4.007259,-0.62437 -5.411916,-1.87288 -1.404542,-1.2486 -2.1069,-2.85515 -2.1069,-4.81976 0,-1.96461 0.702358,-3.57125 2.1069,-4.81975 1.404657,-1.2485 3.20857,-1.87273 5.411916,-1.87273 z m 30.067488,0.055 c 0.807913,0 1.519401,0.12851 2.134481,0.38559 0.615083,0.25699 1.198063,0.67016 1.748903,1.23934 v -1.21176 h 4.406738 v 12.47619 h -4.406738 v -1.37697 c -0.477373,0.58762 -1.023633,1.0282 -1.638716,1.32195 -0.61508,0.29387 -1.298946,0.4406 -2.051733,0.4406 -1.854467,0 -3.396803,-0.6288 -4.626963,-1.88652 -1.23016,-1.25773 -1.845297,-2.84137 -1.845297,-4.75095 0,-1.8728 0.601227,-3.44729 1.803921,-4.72336 1.202597,-1.27606 2.694401,-1.91411 4.475404,-1.91411 z m -12.554982,0.13778 c 1.542362,0 2.71291,0.42683 3.511596,1.28057 0.798689,0.85379 1.197972,2.03361 1.197972,3.53918 v 7.93183 h -4.406593 v -6.30691 c 0,-1.08332 -0.151415,-1.84529 -0.45439,-2.28589 -0.302977,-0.44069 -0.83091,-0.66098 -1.583698,-0.66098 -0.734448,0 -1.303618,0.22481 -1.707527,0.67462 -0.403908,0.44981 -0.605954,1.07876 -0.605954,1.88667 v 6.69249 h -4.40659 v -12.47619 h 4.40659 v 1.5699 c 0.0918,-0.11016 0.188154,-0.21583 0.289187,-0.31676 0.100931,-0.10103 0.197379,-0.19739 0.289185,-0.28919 0.477372,-0.45904 0.982399,-0.78034 1.514884,-0.96395 0.532484,-0.18363 1.184213,-0.27539 1.955338,-0.27539 z m -38.109659,0.27539 h 12.44876 l -5.83887,8.81318 h 5.23292 v 3.66301 H 3.565869 l 5.89389,-8.81318 h -5.09515 z m 20.597153,3.33245 c -0.789577,0 -1.464248,0.27551 -2.024297,0.82633 -0.559952,0.55084 -0.839972,1.23017 -0.839972,2.03809 0,0.78948 0.28002,1.46434 0.839972,2.02429 0.560049,0.56005 1.23472,0.83997 2.024297,0.83997 0.78946,0 1.459664,-0.27992 2.010505,-0.83997 0.550821,-0.55995 0.826327,-1.23481 0.826327,-2.02429 0,-0.80792 -0.275506,-1.48725 -0.826327,-2.03809 -0.550841,-0.55082 -1.221045,-0.82633 -2.010505,-0.82633 z m 31.224374,0.0552 c -0.789575,0 -1.45981,0.27992 -2.010652,0.83997 -0.550744,0.55997 -0.826178,1.23482 -0.826178,2.0243 0,0.78958 0.275434,1.45966 0.826178,2.0105 0.550842,0.55084 1.221077,0.82618 2.010652,0.82618 0.789481,0 1.459664,-0.27534 2.010504,-0.82618 0.550823,-0.55084 0.826184,-1.22092 0.826184,-2.0105 0,-0.80792 -0.275361,-1.48725 -0.826184,-2.03809 -0.55084,-0.55082 -1.221023,-0.82618 -2.010504,-0.82618 z m -30.957637,1.18872 c 0.283129,0 0.536283,0.0458 0.758982,0.13733 0.221443,0.091 0.429989,0.23426 0.625028,0.42931 0.377679,0.37767 0.566633,0.84835 0.566633,1.41159 0,0.28065 -0.04709,0.53602 -0.140851,0.76588 -0.09403,0.23049 -0.237262,0.44356 -0.429303,0.63867 -0.190861,0.19408 -0.399163,0.33838 -0.624881,0.43268 -0.224538,0.0938 -0.476561,0.14085 -0.755608,0.14085 -0.54498,0 -1.010896,-0.19354 -1.397802,-0.58042 -0.198753,-0.19878 -0.345468,-0.41174 -0.439574,-0.63868 -0.09376,-0.22614 -0.140704,-0.47922 -0.140704,-0.75898 0,-0.29208 0.04685,-0.55202 0.140704,-0.77967 0.09376,-0.22748 0.238084,-0.43715 0.432678,-0.62855 0.386364,-0.37998 0.854669,-0.57001 1.404698,-0.57001 z m 31.224374,0.055 c 0.283129,0 0.536284,0.0458 0.758983,0.13732 0.221444,0.091 0.429989,0.23427 0.625028,0.42931 0.37768,0.37768 0.566484,0.84835 0.566484,1.41159 0,0.28313 -0.04578,0.53628 -0.137329,0.75898 -0.09101,0.22145 -0.234116,0.42999 -0.429155,0.62503 -0.37768,0.37768 -0.839107,0.56649 -1.384011,0.56649 -0.542677,0 -1.002526,-0.18731 -1.379314,-0.5618 l -0.0045,-0.005 -1.51e-4,1.5e-4 -1.5e-4,-1.5e-4 -0.0017,0.002 c -0.19239,-0.19291 -0.335196,-0.40191 -0.427542,-0.62664 -0.09153,-0.2227 -0.137329,-0.47585 -0.137329,-0.75898 0,-0.28056 0.04699,-0.53607 0.14085,-0.76603 0.09401,-0.23049 0.237213,-0.44344 0.429157,-0.63867 0.375997,-0.38228 0.836274,-0.57353 1.380636,-0.57353 z"
       id="path3340-2-3" />
    <g
       transform="matrix(0.24179211,0,0,0.24179211,-16.800881,201.48467)"
       id="g4697-8-7"
       style="fill:#ffffff;fill-rule:evenodd">
      <text
         id="text4494-0-4-4"
         y="352.22989"
         x="85.451073"
         style="font-style:normal;font-variant:normal;font-weight:normal;font-stretch:normal;line-height:0%;font-family:Arial;-inkscape-font-specification:Arial;letter-spacing:0px;word-spacing:0px;fill:#ffffff;fill-opacity:1;fill-rule:evenodd;stroke:none;stroke-width:1px;stroke-linecap:butt;stroke-linejoin:miter;stroke-opacity:1"
         xml:space="preserve"><tspan
           style="font-style:normal;font-variant:normal;font-weight:bold;font-stretch:normal;font-size:17.40624809px;line-height:0;font-family:Arial;-inkscape-font-specification:'Arial Bold';fill:#ffffff;fill-opacity:1"
           y="352.22989"
           x="85.451073"
           id="tspan4496-1-8-3"
           sodipodi:role="line">Gran Buenos Aires Noroeste</tspan></text>
    </g>
    <g
       transform="matrix(0.24179211,0,0,0.24179211,-16.800881,201.48467)"
       id="g4693-4-5"
       style="fill:#ffffff;fill-rule:evenodd">
      <text
         id="text4494-9-9-3-1"
         y="362.91876"
         x="200.52548"
         style="font-style:normal;font-variant:normal;font-weight:normal;font-stretch:normal;line-height:0%;font-family:Arial;-inkscape-font-specification:Arial;letter-spacing:0px;word-spacing:0px;fill:#ffffff;fill-opacity:1;fill-rule:evenodd;stroke:none;stroke-width:1px;stroke-linecap:butt;stroke-linejoin:miter;stroke-opacity:1"
         xml:space="preserve"><tspan
           style="font-style:normal;font-variant:normal;font-weight:normal;font-stretch:normal;font-size:9.44139385px;line-height:0;font-family:Arial;-inkscape-font-specification:Arial;fill:#ffffff;fill-opacity:1"
           y="362.91876"
           x="200.52548"
           id="tspan4496-0-3-6-7"
           sodipodi:role="line">San Martín - Tres de Febrero</tspan></text>
    </g>
    <g
       transform="matrix(0.24179211,0,0,0.24179211,-16.800881,201.48467)"
       id="g4701-2-1"
       style="fill:#ffffff;fill-rule:evenodd">
      <text
         id="text4494-1-8-6-0"
         y="268.63022"
         x="86.058998"
         style="font-style:normal;font-variant:normal;font-weight:normal;font-stretch:normal;line-height:0%;font-family:Arial;-inkscape-font-specification:Arial;letter-spacing:0px;word-spacing:0px;fill:#ffffff;fill-opacity:1;fill-rule:evenodd;stroke:none;stroke-width:1px;stroke-linecap:butt;stroke-linejoin:miter;stroke-opacity:1"
         xml:space="preserve"><tspan
           style="font-style:normal;font-variant:normal;font-weight:normal;font-stretch:normal;font-size:10.91116142px;line-height:0;font-family:Arial;-inkscape-font-specification:Arial;fill:#ffffff;fill-opacity:1"
           y="268.63022"
           x="86.058998"
           id="tspan4496-8-2-0-2"
           sodipodi:role="line">Scouts de Argentina</tspan></text>
    </g>
    <path
       d="m 70.440099,264.12706 c 0.139215,-0.0262 0.281352,-0.0445 0.422517,-0.0567 0.594964,-0.0515 1.335602,0.008 1.537566,0.71292 0.02152,0.0751 0.03376,0.14798 0.03776,0.2187 0.392381,-0.41685 0.933029,-0.65806 1.518686,-0.73586 0.925774,-0.12283 1.908168,0.1533 2.748848,0.52407 7.692892,3.39203 10.568114,12.76579 6.916455,20.15376 -3.686676,7.45915 -12.736989,10.44107 -20.176975,6.7636 -0.166158,-0.0821 -0.329029,-0.17484 -0.486233,-0.27303 -0.197342,-0.12325 -0.397254,-0.26158 -0.570687,-0.41685 -0.352416,-0.31529 -0.585563,-0.75499 -0.40037,-1.2384 0.378571,-0.98841 1.668019,-0.57519 2.394227,-0.36209 4.469672,1.31197 9.509955,0.21056 12.381285,-3.62224 0.88908,-1.18683 1.494407,-2.5399 1.794912,-3.99152 0.463892,-2.24091 0.17341,-4.58169 -0.678974,-6.69465 -0.939681,-2.32882 -2.533441,-4.34252 -4.527026,-5.86086 -0.599121,-0.45627 -1.102901,-1.06338 -1.352351,-1.78083 -0.174847,-0.50271 -0.213747,-1.05017 -0.07206,-1.55768 -0.03182,0.0219 -0.06468,0.0426 -0.09836,0.0624 -0.246534,0.1449 -0.535503,0.25913 -0.802868,0.35952 -3.046852,1.14439 -5.399778,3.85815 -5.393569,7.20596 0.002,1.03077 0.231018,2.03488 0.670538,2.96685 1.465008,3.10608 4.861278,4.80669 8.202169,4.82708 1.14447,0.007 2.416295,0.61587 2.601761,1.85986 0.09561,0.64079 -0.165793,1.25144 -0.619782,1.69762 -0.514223,0.50536 -1.235481,0.79168 -1.926947,0.95324 -2.332269,0.5448 -4.740923,0.25707 -6.893047,-0.78621 -3.178543,-1.54084 -5.457831,-4.54527 -6.109857,-8.01448 -1.131549,-6.02127 2.876282,-11.7857 8.882378,-12.91414 z"
       style="fill:#f2f2f2;fill-opacity:1;fill-rule:evenodd;stroke-width:0.2417921"
       id="path3344-0-0"
       inkscape:connector-curvature="0" />
    <path
       style="opacity:1;fill:#ff6600;fill-rule:evenodd;stroke:#cccccc;stroke-width:0.1934337;stroke-linecap:butt;stroke-linejoin:miter;stroke-miterlimit:4;stroke-dasharray:none;stroke-opacity:1"
       d="m 64.387238,274.099 c 0.0026,0.0208 0.0017,0.0427 0.0045,0.0635 -0.166201,0.42608 -0.30411,0.86437 -0.411801,1.31248 -0.107688,0.44811 -0.185059,0.90593 -0.230457,1.37066 -0.0454,0.46472 -0.05883,0.93668 -0.03816,1.41259 0.02067,0.47592 0.07534,0.95584 0.165856,1.43753 0.09148,0.48676 0.224385,0.95734 0.380823,1.41599 2.303536,2.77913 5.949971,4.31234 9.681128,3.44063 2.808969,-0.65624 2.128437,-2.73152 0.143187,-2.74358 -5.011773,-0.0305 -9.141915,-3.36906 -9.695109,-7.70977 z"
       id="path4678-4-0"
       inkscape:connector-curvature="0" />
    <path
       style="opacity:1;fill:#ffec00;fill-opacity:1;fill-rule:evenodd;stroke:#cccccc;stroke-width:0.1934337;stroke-linecap:butt;stroke-linejoin:miter;stroke-miterlimit:4;stroke-dasharray:none;stroke-opacity:1"
       d="m 71.061079,264.56332 c -0.160625,-0.0582 -0.594745,-0.0267 -0.873473,0.0257 -5.546963,1.04242 -9.203638,6.35625 -8.167662,11.86898 0.0767,0.40815 0.184452,0.80441 0.307151,1.19309 0.03708,0.11745 0.08058,0.23169 0.121651,0.3472 0.09838,0.27661 0.207186,0.54759 0.327554,0.81227 0.05225,0.11489 0.103594,0.23017 0.159807,0.34266 0.153775,0.30767 0.321282,0.60649 0.50323,0.89501 0.02942,0.0467 0.05412,0.0967 0.08425,0.14281 0.02938,0.045 0.06555,0.0844 0.09558,0.12883 0.191105,0.28293 0.422308,0.5306 0.638862,0.79187 -0.156437,-0.45865 -0.289346,-0.92924 -0.380822,-1.416 -0.09052,-0.48169 -0.145181,-0.96161 -0.165856,-1.43753 -0.02067,-0.47591 -0.0072,-0.94787 0.03816,-1.41259 0.0454,-0.46472 0.122769,-0.92255 0.230457,-1.37066 0.107691,-0.44811 0.2456,-0.88639 0.411801,-1.31248 -0.0028,-0.0208 -0.002,-0.0426 -0.0045,-0.0635 -0.04094,-0.32121 -0.06663,-0.64648 -0.06725,-0.97775 -0.0042,-2.26133 0.957477,-4.32306 2.537305,-5.87366 0.316047,-0.3102 0.656553,-0.59987 1.019307,-0.86667 0.725349,-0.53349 1.538821,-0.97524 2.417541,-1.3053 0.814889,-0.30606 0.927563,-0.45409 0.766935,-0.5123 z"
       id="path3346-5-9"
       inkscape:connector-curvature="0" />
    <path
       style="opacity:1;fill:#e30016;fill-rule:evenodd;stroke:#ffffff;stroke-width:0.1934337;stroke-linecap:butt;stroke-linejoin:miter;stroke-miterlimit:4;stroke-dasharray:none;stroke-opacity:1"
       d="m 78.798805,282.4004 c 0.01934,-0.0674 0.04541,-0.13293 0.06347,-0.20061 0.0119,-0.0446 0.0121,-0.0916 0.02342,-0.13639 -0.0287,0.11244 -0.05466,0.22543 -0.0869,0.337 z"
       id="path4672-2-7"
       inkscape:connector-curvature="0" />
    <path
       style="opacity:1;fill:#e30016;fill-rule:evenodd;stroke:#ffffff;stroke-width:0.1934337;stroke-linecap:butt;stroke-linejoin:miter;stroke-miterlimit:4;stroke-dasharray:none;stroke-opacity:1"
       d="m 78.417224,283.49451 c 0.04346,-0.10699 0.0957,-0.21116 0.135629,-0.31924 0.02893,-0.0783 0.04848,-0.15918 0.07557,-0.23802 -0.06475,0.18748 -0.136038,0.37292 -0.211195,0.55726 z"
       id="path4670-9-8"
       inkscape:connector-curvature="0" />
    <path
       style="opacity:1;fill:#e30016;fill-rule:evenodd;stroke:#ffffff;stroke-width:0.1934337;stroke-linecap:butt;stroke-linejoin:miter;stroke-miterlimit:4;stroke-dasharray:none;stroke-opacity:1"
       d="m 77.895861,284.5924 c 0.08512,-0.15638 0.177819,-0.30983 0.25464,-0.46923 0.02578,-0.0535 0.04465,-0.10935 0.06951,-0.16321 -0.09913,0.21401 -0.210326,0.42374 -0.324155,0.63244 z"
       id="path4668-83-9"
       inkscape:connector-curvature="0" />
    <path
       style="opacity:1;fill:#e30016;fill-rule:evenodd;stroke:#ffffff;stroke-width:0.1934337;stroke-linecap:butt;stroke-linejoin:miter;stroke-miterlimit:4;stroke-dasharray:none;stroke-opacity:1"
       d="m 77.061679,285.91394 c 0.213537,-0.28504 0.410992,-0.57732 0.592389,-0.87611 0.01633,-0.0269 0.02851,-0.0554 0.04458,-0.0824 -0.194798,0.32677 -0.404328,0.64793 -0.636973,0.95848 z"
       id="path4666-1-0"
       inkscape:connector-curvature="0" />
    <path
       style="opacity:1;fill:#e30016;fill-rule:evenodd;stroke:#ffffff;stroke-width:0.1934337;stroke-linecap:butt;stroke-linejoin:miter;stroke-miterlimit:4;stroke-dasharray:none;stroke-opacity:1"
       d="m 75.932433,287.18146 c 0.15068,-0.14672 0.305045,-0.28854 0.448072,-0.44504 0.238201,-0.26065 0.465681,-0.53482 0.681174,-0.82248 -0.344835,0.46032 -0.72766,0.87647 -1.129246,1.26752 z"
       id="path4664-17-1"
       inkscape:connector-curvature="0" />
    <path
       style="opacity:1;fill:#e30016;fill-rule:evenodd;stroke:#cccccc;stroke-width:0.1934337;stroke-linecap:butt;stroke-linejoin:miter;stroke-miterlimit:4;stroke-dasharray:none;stroke-opacity:1"
       d="m 79.304675,288.23968 c -0.315955,0.0465 -0.632146,0.0939 -0.945248,0.12127 -0.321742,0.0282 -0.640471,0.0357 -0.952818,10e-4 -0.312341,-0.0345 -0.618169,-0.111 -0.91465,-0.25124 -0.148244,-0.0701 -0.294054,-0.15606 -0.437116,-0.26068 -0.143062,-0.10462 -0.283415,-0.22801 -0.420492,-0.37251 0.04316,-0.0389 0.08169,-0.0839 0.124294,-0.12354 -3.107093,2.89215 -7.311285,3.78075 -11.659666,2.50444 -2.32049,-0.68114 -0.994626,0.27955 -0.288262,0.62866 5.418833,2.67833 11.314169,1.588 15.493958,-2.24754 z"
       id="path4662-3-5"
       inkscape:connector-curvature="0"
       sodipodi:nodetypes="cssssccccc" />
    <path
       style="opacity:1;fill:#009ee0;fill-opacity:1;fill-rule:evenodd;stroke:#cccccc;stroke-width:0.1934337;stroke-linecap:butt;stroke-linejoin:miter;stroke-miterlimit:4;stroke-dasharray:none;stroke-opacity:1"
       d="m 83.785391,276.19239 c -0.09634,0.24442 -0.205905,0.46447 -0.3302,0.65888 -0.127704,0.19976 -0.269608,0.37446 -0.42389,0.52665 -0.154283,0.1522 -0.321171,0.28184 -0.499073,0.39179 -0.177902,0.10994 -0.366649,0.20014 -0.565192,0.27314 -0.198537,0.073 -0.406771,0.12902 -0.62299,0.17039 -0.216214,0.0414 -0.440427,0.0681 -0.671356,0.0831 -0.461848,0.0301 -0.950141,0.0131 -1.453021,-0.0302 -0.0035,-0.0453 -0.01593,-0.0904 -0.02002,-0.13564 0.117174,1.33084 0.01178,2.65689 -0.313951,3.9329 -0.01133,0.0448 -0.01153,0.0918 -0.02342,0.13639 -0.01806,0.0677 -0.04412,0.13325 -0.06347,0.20061 -0.05213,0.1804 -0.108955,0.35897 -0.170389,0.53685 -0.02709,0.0788 -0.04663,0.15973 -0.07556,0.23802 -0.03993,0.10808 -0.09218,0.21225 -0.135629,0.31924 -0.0636,0.15599 -0.126115,0.31194 -0.197214,0.46545 -0.02487,0.0539 -0.04372,0.10968 -0.06952,0.16321 -0.07681,0.1594 -0.169518,0.31285 -0.254637,0.46923 -0.06601,0.12102 -0.126223,0.24399 -0.197209,0.36306 -0.01607,0.027 -0.02825,0.0555 -0.04458,0.0824 -0.181397,0.29879 -0.378855,0.59107 -0.592392,0.87611 -0.215493,0.28766 -0.442973,0.56183 -0.681171,0.82248 -0.143031,0.1565 -0.297396,0.29832 -0.448072,0.44504 -0.05856,0.057 -0.114111,0.11711 -0.173788,0.17266 -0.04261,0.0397 -0.08114,0.0846 -0.124298,0.12354 0.137077,0.1445 0.277431,0.26789 0.420493,0.37251 0.143061,0.10462 0.288875,0.19056 0.437115,0.26068 0.296481,0.14024 0.602309,0.21672 0.914653,0.25124 0.312347,0.0345 0.631074,0.027 0.952812,-10e-4 0.313102,-0.0274 0.629302,-0.0747 0.945257,-0.12127 0.129667,-0.11898 0.257959,-0.23956 0.383469,-0.36382 0.132648,-0.13134 0.266988,-0.26067 0.394798,-0.39783 0.183977,-0.19744 0.357785,-0.40609 0.531192,-0.61543 0.11199,-0.1352 0.227736,-0.26605 0.335106,-0.40614 0.183302,-0.23918 0.353339,-0.49181 0.522494,-0.74502 0.08378,-0.1254 0.174108,-0.24448 0.254262,-0.37326 0.241679,-0.38835 0.469023,-0.79005 0.675884,-1.20859 0.281423,-0.56939 0.507446,-1.15357 0.706486,-1.74279 0.04717,-0.13904 0.09029,-0.27873 0.132985,-0.41861 0.172982,-0.56993 0.320924,-1.14461 0.42049,-1.7239 0.0028,-0.0164 0.0078,-0.0327 0.01056,-0.0491 0.107993,-0.64174 0.167693,-1.28676 0.188521,-1.93056 0.002,-0.0593 8.52e-4,-0.11834 0.0023,-0.17757 0.01275,-0.63464 -0.0089,-1.26819 -0.07783,-1.89466 z"
       id="path4660-4-8"
       inkscape:connector-curvature="0" />
    <path
       style="opacity:1;fill:#008000;fill-opacity:1;fill-rule:evenodd;stroke:#cccccc;stroke-width:0.1934337;stroke-linecap:butt;stroke-linejoin:miter;stroke-miterlimit:4;stroke-dasharray:none;stroke-opacity:1"
       d="m 73.68868,264.73182 c -1.718845,0.20414 -1.857435,2.13302 -0.211947,3.38622 0.365988,0.27874 0.715715,0.57047 1.048774,0.87348 0.0026,0.003 0.0047,0.005 0.0072,0.007 0.113381,0.10329 0.213889,0.21487 0.3234,0.32075 0.209502,0.20257 0.423249,0.40244 0.618456,0.61393 0.0052,0.006 0.0095,0.0118 0.01474,0.0174 0.114852,0.12481 0.215831,0.25729 0.325663,0.38498 0.171082,0.19889 0.348212,0.39454 0.507009,0.59994 0.0064,0.008 0.01167,0.0173 0.01814,0.0257 0.117126,0.15217 0.219104,0.31116 0.329442,0.46659 0.132784,0.18705 0.273449,0.37039 0.39631,0.56179 0.0071,0.0111 0.01255,0.0229 0.01965,0.034 0.105385,0.16515 0.195601,0.33592 0.293554,0.50398 0.10875,0.18661 0.226154,0.37005 0.325662,0.5599 0.0079,0.0151 0.01366,0.031 0.02155,0.0461 0.08658,0.16663 0.158226,0.33741 0.237633,0.50625 0.09107,0.19363 0.190834,0.38487 0.272393,0.58105 0.008,0.0193 0.01323,0.0392 0.02115,0.0586 0.0708,0.17251 0.127007,0.34795 0.190409,0.52212 0.07034,0.19322 0.149655,0.38461 0.210811,0.57955 0.0068,0.0219 0.01065,0.0442 0.01738,0.0661 0.0577,0.18725 0.100074,0.37633 0.149234,0.56481 0.04766,0.18276 0.105122,0.36418 0.144698,0.54781 0.0042,0.0196 0.0046,0.0394 0.0087,0.0589 0.105814,0.50215 0.176556,1.0062 0.221012,1.51083 0.004,0.0455 0.01652,0.0908 0.02002,0.13638 0.502881,0.0433 0.991173,0.0603 1.453024,0.0302 0.230927,-0.015 0.455133,-0.0417 0.671353,-0.0831 0.21622,-0.0414 0.424447,-0.0974 0.62299,-0.17039 0.198546,-0.073 0.387293,-0.16321 0.565192,-0.27315 0.177902,-0.10994 0.344782,-0.23958 0.499073,-0.39178 0.154282,-0.15219 0.296186,-0.32689 0.423891,-0.52665 0.124294,-0.19441 0.233857,-0.41446 0.330199,-0.65888 -0.0049,-0.0444 -0.0056,-0.0894 -0.01096,-0.13375 -0.0631,-0.52851 -0.151159,-1.05302 -0.271644,-1.569 -0.0201,-0.086 -0.04975,-0.16906 -0.0714,-0.25464 -0.108708,-0.42951 -0.235992,-0.85332 -0.383844,-1.26978 -0.05762,-0.16227 -0.123162,-0.32138 -0.186638,-0.48132 -0.137153,-0.34557 -0.287674,-0.68529 -0.451842,-1.01855 -0.07594,-0.15414 -0.150714,-0.30859 -0.23235,-0.45978 -0.202006,-0.37409 -0.423589,-0.73707 -0.660016,-1.09109 -0.0595,-0.0891 -0.110999,-0.18318 -0.172658,-0.27088 -0.303533,-0.43177 -0.635332,-0.84481 -0.99021,-1.23957 -0.09234,-0.1027 -0.194781,-0.19699 -0.29053,-0.29695 -0.276241,-0.28836 -0.564261,-0.56685 -0.868559,-0.83078 -0.136043,-0.11798 -0.276663,-0.23142 -0.418229,-0.34418 -0.301549,-0.24017 -0.617099,-0.46621 -0.943366,-0.68117 -0.139581,-0.092 -0.275318,-0.18797 -0.419359,-0.27504 -0.474202,-0.28664 -0.965396,-0.55431 -1.487023,-0.78431 -0.916618,-0.40417 -1.665138,-0.52783 -2.238087,-0.45978 z"
       id="path3348-0-5-7"
       inkscape:connector-curvature="0" />
  </g>
</svg>
